<?xml version="1.0" encoding="UTF-8"?>
<svg version="1.1" xmlns="http://www.w3.org/2000/svg" width="512" height="512">
<path d="M0 0 C1.41895517 0.53489862 2.83858027 1.06802292 4.25881958 1.59950256 C8.04613588 3.02215811 11.82400412 4.46844741 15.60054779 5.91941452 C19.57339585 7.44078044 23.55487455 8.93921091 27.53564453 10.43969727 C33.88438133 12.83547155 40.22867665 15.24260002 46.56933594 17.65966797 C53.69096788 20.37390549 60.82119147 23.0641815 67.9609375 25.73046875 C68.90278397 26.08225693 69.84463043 26.4340451 70.8150177 26.79649353 C72.6599378 27.48544623 74.50489254 28.17430614 76.34988403 28.86306763 C81.03365355 30.61373775 85.71401958 32.37345489 90.39453125 34.1328125 C104.24477857 39.33772439 118.09742998 44.53622034 131.95089245 49.73256779 C135.86043549 51.19904715 139.76986848 52.66581848 143.67904663 54.13327026 C158.81296383 59.81431904 173.94797499 65.49177079 189.10846138 71.10161018 C190.94714582 71.78208204 192.78557909 72.46323248 194.62400818 73.14439392 C200.17722037 75.20187203 205.73198409 77.25488759 211.2902832 79.29858398 C213.22355073 80.01394215 215.1567426 80.72950486 217.08984375 81.4453125 C218.38134842 81.9168148 218.38134842 81.9168148 219.69894409 82.39784241 C226.5016666 84.92662013 231.936503 87.04911049 235.203125 93.9453125 C236.04885751 99.58352926 236.39822566 104.52114989 233.17895508 109.41040039 C230.09688477 113.55336137 226.73621708 114.9291392 221.9609375 116.6015625 C221.1071048 116.92185425 220.25327209 117.242146 219.37356567 117.57214355 C217.42533936 118.30107248 215.47342776 119.02019875 213.51867676 119.73144531 C209.86921772 121.06756036 206.23579914 122.44369075 202.60449219 123.828125 C195.56467343 126.50837399 188.51452821 129.16027484 181.46044922 131.80273438 C177.76047654 133.18874932 174.06243757 134.57985013 170.36483574 135.9721756 C167.49533828 137.05190416 164.6247193 138.12862441 161.75375748 139.20445251 C160.38738642 139.71696985 159.02140269 140.23052105 157.65581894 140.74513245 C155.76765137 141.4562613 153.87776457 142.16282032 151.98779297 142.86914062 C150.91560516 143.27136841 149.84341736 143.67359619 148.73873901 144.0880127 C146.203125 144.9453125 146.203125 144.9453125 144.203125 144.9453125 C144.20681217 145.52269826 144.21049934 146.10008402 144.21429825 146.69496632 C144.30288132 160.7854654 144.36894691 174.87592241 144.41037369 188.96664143 C144.43094318 195.78100437 144.45895523 202.59518071 144.50488281 209.40942383 C144.54921804 215.99058278 144.57229061 222.57159944 144.58263397 229.15291405 C144.5900013 231.65862254 144.60438781 234.16432094 144.62604523 236.66994667 C144.65525579 240.19075688 144.6590735 243.71077677 144.65722656 247.23168945 C144.67160767 248.25812561 144.68598877 249.28456177 144.70080566 250.34210205 C144.62460562 263.84437264 138.85804862 273.95867929 129.6953125 283.578125 C100.70914012 311.21217273 55.56908129 319.94330961 17.203125 323.9453125 C16.38138794 324.03264145 15.55965088 324.1199704 14.7130127 324.20994568 C7.88582186 324.88738767 1.12393076 325.11941407 -5.734375 325.1484375 C-6.84484192 325.15545181 -7.95530884 325.16246613 -9.09942627 325.16969299 C-12.66528415 325.18711225 -16.23097613 325.19354554 -19.796875 325.1953125 C-21.01306519 325.19598724 -22.22925537 325.19666199 -23.4822998 325.19735718 C-40.78189781 325.18207485 -57.70881117 324.88855993 -74.796875 321.9453125 C-75.85503418 321.77370605 -76.91319336 321.60209961 -78.00341797 321.42529297 C-113.12281956 315.64693532 -156.29853014 305.19360914 -178.796875 274.9453125 C-180.7454013 271.70893958 -182.38946984 268.44969483 -183.796875 264.9453125 C-184.14225311 264.1352475 -184.48763123 263.3251825 -184.84347534 262.49057007 C-186.1694335 257.55993771 -186.05892527 252.882919 -186.02392578 247.79931641 C-186.02421783 246.6865332 -186.02450989 245.57375 -186.02481079 244.42724609 C-186.02342037 240.75870903 -186.00787241 237.09037648 -185.9921875 233.421875 C-185.98845636 230.87454337 -185.98560986 228.32721029 -185.98361206 225.77987671 C-185.97676281 219.76640447 -185.96100888 213.75301966 -185.94091308 207.73958242 C-185.91852444 200.89073264 -185.90755321 194.04187928 -185.89752221 187.19300199 C-185.87664174 173.11039842 -185.84148431 159.02785947 -185.796875 144.9453125 C-186.46500497 144.7479396 -187.13313494 144.55056669 -187.82151127 144.34721279 C-189.15099623 143.9519444 -189.15099623 143.9519444 -190.50733948 143.5486908 C-191.81890943 143.15981894 -191.81890943 143.15981894 -193.15697575 142.76309109 C-197.21222898 141.50686918 -201.16999299 140.02067838 -205.13671875 138.51171875 C-205.98432266 138.19250961 -206.83192657 137.87330048 -207.70521545 137.54441833 C-210.38280017 136.53535794 -213.05864381 135.52177634 -215.734375 134.5078125 C-218.40688917 133.49837915 -221.07976303 132.48990576 -223.75282288 131.48191833 C-225.40510442 130.85850485 -227.05702198 130.23412535 -228.70848083 129.60853577 C-232.993602 127.98805086 -237.2881377 126.39711497 -241.59449768 124.83384705 C-242.57246591 124.47868987 -243.55043413 124.1235327 -244.55803776 123.75761318 C-245.29685405 123.48955396 -246.03567034 123.22149473 -246.796875 122.9453125 C-247.20929711 149.65527176 -247.48046282 176.36372713 -247.59740353 203.07667828 C-247.65480206 215.48914447 -247.75376477 227.89835756 -247.95922852 240.30932617 C-248.8729262 296.94130279 -248.11973676 347.18088556 -225.4145813 399.72476196 C-222.99542899 405.35634696 -220.92969576 411.03298448 -219.10131836 416.8815918 C-218.8654152 417.63023152 -218.62951204 418.37887125 -218.3864603 419.15019703 C-216.29271227 426.09548418 -215.1712327 432.2024671 -218.421875 438.8828125 C-221.15406831 442.40590387 -222.54055193 443.62972173 -226.796875 444.9453125 C-232.24201544 445.59450957 -236.4158299 445.64794948 -241.359375 443.1328125 C-243.796875 440.9453125 -243.796875 440.9453125 -245.796875 437.9453125 C-245.796875 436.9553125 -245.796875 435.9653125 -245.796875 434.9453125 C-246.456875 434.9453125 -247.116875 434.9453125 -247.796875 434.9453125 C-247.95736328 435.83476563 -247.95736328 435.83476563 -248.12109375 436.7421875 C-249.12961417 440.03008066 -250.87189116 441.59496408 -253.5 443.734375 C-258.04727519 446.13174797 -262.836698 445.75134126 -267.796875 444.9453125 C-272.41044629 442.75993663 -274.53081474 440.45073604 -276.796875 435.9453125 C-277.17407316 433.13831002 -277.17407316 433.13831002 -277.17719173 430.00569248 C-277.18563168 428.80811615 -277.19407162 427.61053981 -277.20276731 426.37667328 C-277.19675727 425.06462589 -277.19074722 423.7525785 -277.18455505 422.40077209 C-277.18872801 420.99004693 -277.19420531 419.57932513 -277.20087487 418.16860956 C-277.21535336 414.29208496 -277.21107731 410.41577253 -277.20370805 406.53923619 C-277.19898462 402.35850907 -277.21147891 398.1778284 -277.22172546 393.99711609 C-277.23893493 385.80683509 -277.23974904 377.61663074 -277.23451256 369.42633636 C-277.23047367 362.77032001 -277.23191107 356.11432634 -277.23726082 349.45831108 C-277.23800924 348.51154732 -277.23875766 347.56478357 -277.23952876 346.58933 C-277.24106022 344.66607805 -277.24259856 342.74282611 -277.24414373 340.81957417 C-277.25787651 322.77753937 -277.25242559 304.73554792 -277.24095852 286.6935141 C-277.23102498 270.18233369 -277.24396752 253.67126532 -277.26789271 237.1601022 C-277.29226632 220.21197727 -277.30189589 203.26390457 -277.29523998 186.31576246 C-277.29174394 176.79843255 -277.29400524 167.28118883 -277.31149101 157.76387215 C-277.32619125 149.66209355 -277.32687701 141.56046183 -277.3094201 133.45868618 C-277.30088976 129.32424707 -277.2988099 125.19007061 -277.31407166 121.05564499 C-277.32786853 117.27124318 -277.3232207 113.48733025 -277.30383242 109.70295709 C-277.29826709 107.68452909 -277.31238555 105.66607652 -277.32718652 103.64769512 C-277.23744066 92.67272336 -277.23744066 92.67272336 -272.796875 87.9453125 C-270.61233521 86.41462708 -270.61233521 86.41462708 -268.24658203 85.33520508 C-267.36391663 84.93065094 -266.48125122 84.5260968 -265.57183838 84.10928345 C-260.95969264 82.17469804 -256.30672294 80.40193439 -251.6015625 78.70703125 C-250.52620743 78.31388229 -249.45085236 77.92073334 -248.34291077 77.51567078 C-246.01277623 76.66422428 -243.68171324 75.81531522 -241.349823 74.96868896 C-235.60012562 72.88032736 -229.85673751 70.77479319 -224.1132412 68.66944885 C-222.76823406 68.17649938 -221.42315199 67.68375433 -220.07799721 67.19120789 C-205.59240673 61.88700289 -191.14359707 56.48668547 -176.70343399 51.060215 C-174.72631681 50.31728452 -172.74908673 49.57465534 -170.77182007 48.8321228 C-164.67166309 46.54126097 -158.57179907 44.24962113 -152.47230244 41.95700169 C-143.5185416 38.59158352 -134.56357628 35.22938296 -125.60788536 31.86910439 C-123.25261774 30.98535723 -120.89740368 30.10146743 -118.54219055 29.21757507 C-110.79618569 26.3109294 -103.04899357 23.40750389 -95.29956055 20.51000977 C-92.32853191 19.39881767 -89.35759804 18.28737255 -86.38671875 17.17578125 C-85.66652243 16.90637033 -84.9463261 16.63695942 -84.20430565 16.35938454 C-75.89076182 13.24816732 -67.58870983 10.11048817 -59.30696106 6.91531372 C-55.29278586 5.36714983 -51.27371191 3.83197063 -47.25405884 2.2980957 C-44.65536765 1.29950272 -42.06550126 0.28023292 -39.4753418 -0.74023438 C-37.93193167 -1.32931536 -36.38809718 -1.91728626 -34.84375 -2.50390625 C-34.19398697 -2.76805832 -33.54422394 -3.03221039 -32.87477112 -3.30436707 C-21.3203203 -7.59767043 -10.97005047 -4.26513187 0 0 Z " fill="#5A5A5A" transform="translate(276.796875,36.0546875)"/>
<path d="M0 0 C1.56560772 0.46297223 3.13067684 0.92776599 4.69552612 1.39329529 C5.56713316 1.65192573 6.4387402 1.91055616 7.33675957 2.17702389 C11.61626258 3.49944627 15.80796718 5.04368619 20.0078125 6.59765625 C20.95029846 6.94381485 21.89278442 7.28997345 22.86383057 7.6466217 C25.95206527 8.7820761 29.03858498 9.92210948 32.125 11.0625 C34.31067764 11.86776262 36.49638785 12.67293685 38.68212891 13.47802734 C58.53818112 20.7997805 78.35103389 28.23595952 98.16110229 35.6809845 C108.08299114 39.4088275 118.00946593 43.12430552 127.94073486 46.8270874 C129.78310991 47.51433048 131.62520184 48.20233315 133.46697998 48.89117432 C138.97018761 50.94915065 144.48039643 52.9864291 150 55 C151.19173828 55.43860352 152.38347656 55.87720703 153.61132812 56.32910156 C154.65224609 56.69745117 155.69316406 57.06580078 156.765625 57.4453125 C157.62446289 57.75227051 158.48330078 58.05922852 159.36816406 58.37548828 C166.1786556 59.99155854 171.44236014 58.48297547 177.77734375 56.12109375 C178.63802963 55.80990097 179.49871552 55.49870819 180.38548279 55.17808533 C183.26218806 54.13234484 186.13148856 53.06799962 189 52 C190.00621399 51.62756165 191.01242798 51.25512329 192.0491333 50.87139893 C198.70179957 48.406752 205.34399931 45.91489927 211.98242188 43.41217041 C217.53878313 41.31745177 223.09744364 39.22885305 228.65597153 37.13989258 C230.53098159 36.43516281 232.40589219 35.7301689 234.28079224 35.02514648 C246.20469414 30.54298005 258.14244597 26.09850691 270.0847168 21.66555786 C279.889214 18.02595665 289.68717285 14.37014597 299.47265625 10.6796875 C301.35156127 9.97183918 303.2304675 9.26399408 305.109375 8.55615234 C308.67196807 7.21377979 312.23289836 5.86711282 315.79296875 4.51806641 C317.38405797 3.91814411 318.97520073 3.31836377 320.56640625 2.71875 C321.29432877 2.44151093 322.02225128 2.16427185 322.77223206 1.87863159 C327.77277316 0 327.77277316 0 330 0 C330.09370597 14.67370994 330.16410722 29.34737992 330.20724869 44.02132893 C330.22781818 50.83569187 330.25583023 57.64986821 330.30175781 64.46411133 C330.34609304 71.04527028 330.36916561 77.62628694 330.37950897 84.20760155 C330.3868763 86.71331004 330.40126281 89.21900844 330.42292023 91.72463417 C330.45213079 95.24544438 330.4559485 98.76546427 330.45410156 102.28637695 C330.46848267 103.31281311 330.48286377 104.33924927 330.49768066 105.39678955 C330.42148062 118.89906014 324.65492362 129.01336679 315.4921875 138.6328125 C286.50601512 166.26686023 241.36595629 174.99799711 203 179 C202.17826294 179.08732895 201.35652588 179.1746579 200.5098877 179.26463318 C193.68269686 179.94207517 186.92080576 180.17410157 180.0625 180.203125 C178.95203308 180.21013931 177.84156616 180.21715363 176.69744873 180.22438049 C173.13159085 180.24179975 169.56589887 180.24823304 166 180.25 C164.78380981 180.25067474 163.56761963 180.25134949 162.3145752 180.25204468 C145.01497719 180.23676235 128.08806383 179.94324743 111 177 C109.94184082 176.82839355 108.88368164 176.65678711 107.79345703 176.47998047 C72.67405544 170.70162282 29.49834486 160.24829664 7 130 C5.0514737 126.76362708 3.40740516 123.50438233 2 120 C1.65462189 119.189935 1.30924377 118.37987 0.95339966 117.54525757 C-0.3725585 112.61462521 -0.26205027 107.9376065 -0.22705078 102.85400391 C-0.22734283 101.7412207 -0.22763489 100.6284375 -0.22793579 99.48193359 C-0.22654537 95.81339653 -0.21099741 92.14506398 -0.1953125 88.4765625 C-0.19158136 85.92923087 -0.18873486 83.38189779 -0.18673706 80.83456421 C-0.17988781 74.82109197 -0.16413388 68.80770716 -0.14403808 62.79426992 C-0.12164944 55.94542014 -0.11067821 49.09656678 -0.10064721 42.24768949 C-0.07976674 28.16508592 -0.04460931 14.08254697 0 0 Z " fill="#444444" transform="translate(91,181)"/>
<path d="M0 0 C0.09370597 14.67370994 0.16410722 29.34737992 0.20724869 44.02132893 C0.22781818 50.83569187 0.25583023 57.64986821 0.30175781 64.46411133 C0.34609304 71.04527028 0.36916561 77.62628694 0.37950897 84.20760155 C0.3868763 86.71331004 0.40126281 89.21900844 0.42292023 91.72463417 C0.45213079 95.24544438 0.4559485 98.76546427 0.45410156 102.28637695 C0.46848267 103.31281311 0.48286377 104.33924927 0.49768066 105.39678955 C0.42148062 118.89906014 -5.34507638 129.01336679 -14.5078125 138.6328125 C-52.49468057 174.84769838 -115.86263281 180 -165 180 C-165 140.4 -165 100.8 -165 60 C-157.08 57.525 -157.08 57.525 -149 55 C-145.65041092 53.81457991 -142.32834268 52.61502709 -139.01171875 51.34765625 C-137.68899712 50.84900055 -137.68899712 50.84900055 -136.33955383 50.340271 C-134.44348343 49.62493567 -132.5481671 48.90759876 -130.65356445 48.18838501 C-126.50580788 46.61394284 -122.35423102 45.04968325 -118.20291138 43.48466492 C-115.97215595 42.64361274 -113.74158865 41.80206144 -111.51119995 40.96003723 C-103.06277637 37.77187295 -94.60608022 34.606274 -86.14453125 31.453125 C-85.52122547 31.22084764 -84.89791969 30.98857029 -84.25572586 30.74925423 C-79.83741225 29.10296659 -75.41872927 27.45767158 -71 25.8125 C-57.13725379 20.65077182 -43.27489153 15.48855809 -29.43359375 10.26953125 C-28.47941559 9.91008926 -27.52523743 9.55064728 -26.54214478 9.18031311 C-22.15872061 7.52893465 -17.7764788 5.87456535 -13.39648438 4.21411133 C-11.8880725 3.64520805 -10.37961228 3.07643291 -8.87109375 2.5078125 C-8.19396835 2.24962234 -7.51684296 1.99143219 -6.81919861 1.72541809 C-2.22717935 0 -2.22717935 0 0 0 Z " fill="#292929" transform="translate(421,181)"/>
<path d="M0 0 C1.00811946 -0.00438225 2.01623891 -0.00876451 3.05490744 -0.01327956 C6.43102625 -0.0266282 9.80711898 -0.03283747 13.18325806 -0.03897095 C15.60463071 -0.04687475 18.02600219 -0.05514387 20.44737244 -0.06375122 C27.70933131 -0.08767052 34.97129188 -0.10288908 42.23327631 -0.11581129 C44.28527125 -0.11952668 46.33726553 -0.12349958 48.38925982 -0.12756395 C61.14214116 -0.1527943 73.89502365 -0.17483892 86.64792442 -0.1872921 C89.59801614 -0.19022157 92.54810783 -0.19318328 95.49819946 -0.19619751 C96.23138982 -0.19694356 96.96458017 -0.19768961 97.71998842 -0.19845827 C109.60298443 -0.21111798 121.48583104 -0.24435416 133.36875717 -0.28599934 C145.57764072 -0.32843539 157.78644774 -0.35198867 169.99540484 -0.35721266 C176.84683507 -0.36062392 183.69803137 -0.37234603 190.54938889 -0.4053154 C196.99266011 -0.43627144 203.43563528 -0.44172347 209.87897301 -0.42993164 C212.24286735 -0.42971056 214.6067804 -0.43804368 216.97060966 -0.45558548 C220.19972993 -0.4782436 223.42736637 -0.46999651 226.65649414 -0.45410156 C228.05699731 -0.47492469 228.05699731 -0.47492469 229.48579347 -0.49616849 C235.78304828 -0.41987677 240.11480445 1.03564673 244.95523071 5.15390015 C247.64455356 8.9357604 248.56682041 12.38625325 248.36929321 17.0640564 C247.59201192 20.98712706 245.70173629 24.2732629 242.95523071 27.15390015 C237.7379875 30.44832191 233.46771481 30.57407671 227.50201416 30.5146637 C226.55767057 30.51722697 225.61332698 30.51979025 224.64036691 30.52243119 C221.48033588 30.52736726 218.32078404 30.5108788 215.16079712 30.49447632 C212.89393119 30.49363001 210.62706443 30.49410526 208.36019897 30.49580383 C202.20778593 30.49666506 196.05554813 30.47901849 189.90317583 30.45808196 C183.47297585 30.43933649 177.04277192 30.43756639 170.61254883 30.43400574 C159.82032881 30.42573889 149.0281807 30.4069964 138.23599243 30.38021851 C127.12141236 30.35266941 116.00684976 30.33144 104.89224243 30.31869507 C104.20680979 30.3179069 103.52137715 30.31711873 102.81517382 30.31630667 C99.37646135 30.31239148 95.93774875 30.30860037 92.49903607 30.30487096 C63.98439003 30.2737853 35.46981382 30.22073502 6.95523071 30.15390015 C6.54305396 57.90694901 6.27171397 85.65855271 6.15470219 113.41447735 C6.09727217 126.31115541 5.99818718 139.20470599 5.7928772 152.09994507 C4.89863127 209.72946312 4.97692587 261.55684011 28.33752441 314.99780273 C30.77113211 320.59900262 32.83074551 326.24675928 34.65078735 332.07455444 C34.88669051 332.82418111 35.12259367 333.57380777 35.36564541 334.3461504 C37.45688001 341.29587872 38.58263302 347.40743777 35.33023071 354.09140015 C32.5980374 357.61449152 31.21155379 358.83830938 26.95523071 360.15390015 C21.51009028 360.80309722 17.33627582 360.85653713 12.39273071 358.34140015 C9.95523071 356.15390015 9.95523071 356.15390015 7.95523071 353.15390015 C7.95523071 352.16390015 7.95523071 351.17390015 7.95523071 350.15390015 C7.29523071 350.15390015 6.63523071 350.15390015 5.95523071 350.15390015 C5.79474243 351.04335327 5.79474243 351.04335327 5.63101196 351.95077515 C4.62249154 355.2386683 2.88021456 356.80355173 0.25210571 358.94296265 C-4.29516948 361.34033562 -9.08459229 360.95992891 -14.04476929 360.15390015 C-18.65834057 357.96852427 -20.77870903 355.65932369 -23.04476929 351.15390015 C-23.42196745 348.34689766 -23.42196745 348.34689766 -23.42508602 345.21428013 C-23.43352596 344.01670379 -23.4419659 342.81912746 -23.4506616 341.58526093 C-23.44465155 340.27321354 -23.43864151 338.96116614 -23.43244934 337.60935974 C-23.43662229 336.19863458 -23.4420996 334.78791277 -23.44876915 333.37719721 C-23.46324765 329.5006726 -23.4589716 325.62436017 -23.45160234 321.74782383 C-23.4468789 317.56709672 -23.45937319 313.38641605 -23.46961975 309.20570374 C-23.48682921 301.01542274 -23.48764333 292.82521839 -23.48240685 284.634924 C-23.47836796 277.97890765 -23.47980536 271.32291399 -23.48515511 264.66689873 C-23.48590353 263.72013497 -23.48665195 262.77337121 -23.48742305 261.79791765 C-23.4889545 259.8746657 -23.49049285 257.95141375 -23.49203802 256.02816182 C-23.50577079 237.98612702 -23.50031988 219.94413556 -23.48885281 201.90210175 C-23.47891927 185.39092134 -23.49186181 168.87985297 -23.515787 152.36868984 C-23.5401606 135.42056492 -23.54979017 118.47249221 -23.54313427 101.52435011 C-23.53963822 92.00702019 -23.54189953 82.48977648 -23.5593853 72.97245979 C-23.57408554 64.87068119 -23.57477129 56.76904948 -23.55731439 48.66727383 C-23.54878405 44.53283472 -23.54670419 40.39865825 -23.56196594 36.26423264 C-23.57576281 32.47983083 -23.57111499 28.69591789 -23.55172671 24.91154473 C-23.54616138 22.89311674 -23.56027983 20.87466417 -23.57508081 18.85628277 C-23.48491152 7.82953019 -23.48491152 7.82953019 -19.04476929 3.15390015 C-13.31674189 -0.66478478 -6.66100506 0.00353422 0 0 Z " fill="#FCBE00" transform="translate(23.044769287109375,120.84609985351563)"/>
<path d="M0 0 C0 29.7 0 59.4 0 90 C-81.51 90.33 -163.02 90.66 -247 91 C-243.86123869 88.90749246 -241.02398003 87.78506251 -237.48828125 86.47265625 C-236.46022118 86.08897385 -236.46022118 86.08897385 -235.41139221 85.69754028 C-233.87668076 85.12530347 -232.34129629 84.55486944 -230.80535889 83.9859314 C-228.22526342 83.03018489 -225.64686803 82.06997168 -223.06884766 81.10864258 C-220.11963249 80.0089035 -217.17031176 78.90945585 -214.22052002 77.81126404 C-205.40292244 74.52760452 -196.59321225 71.22320219 -187.78515625 67.9140625 C-155.57908613 55.816314 -123.35470055 43.76981219 -91.09899902 31.80499268 C-66.78013342 22.78421472 -42.48155588 13.71078628 -18.20361328 4.58032227 C-17.1495932 4.18830124 -17.1495932 4.18830124 -16.07427979 3.7883606 C-14.67111627 3.25506763 -13.27568021 2.70105926 -11.88812256 2.12838745 C-11.20687317 1.85261871 -10.52562378 1.57684998 -9.82373047 1.29272461 C-8.93377884 0.91995644 -8.93377884 0.91995644 -8.02584839 0.53965759 C-6 0 -6 0 0 0 Z " fill="#6E6E6D" transform="translate(256,31)"/>
<path d="M0 0 C74.58 0 149.16 0 226 0 C226 29.7 226 59.4 226 90 C214.75223804 87.75044761 214.75223804 87.75044761 209.3359375 85.69921875 C208.72670441 85.47105469 208.11747131 85.24289063 207.48977661 85.0078125 C205.44875795 84.24149115 203.41200998 83.46440791 201.375 82.6875 C199.87463623 82.12203992 198.3739735 81.55737257 196.87304688 80.9934082 C193.49300078 79.72210902 190.11466446 78.44638688 186.73730469 77.16796875 C180.41544725 74.77667546 174.08691963 72.40327695 167.7578125 70.03125 C166.602173 69.59811996 165.44653351 69.16498993 164.25587463 68.71873474 C161.87588868 67.82676563 159.49588873 66.93483388 157.11587524 66.04293823 C153.49190338 64.68446492 149.86832572 63.32494539 146.24487305 61.96508789 C131.23315934 56.33174863 116.21535318 50.71514557 101.1875 45.125 C100.33623535 44.8082431 99.4849707 44.49148621 98.60791016 44.16513062 C93.84357535 42.39266798 89.0781421 40.62320248 84.3114624 38.85705566 C82.75848716 38.28123569 81.20579743 37.70464514 79.65338135 37.12731934 C70.87544319 33.86312495 62.08204348 30.6604721 53.234375 27.58984375 C42.17652346 23.74920449 31.21333236 19.66372277 20.25 15.5625 C18.26960036 14.8233825 16.2891319 14.0844494 14.30859375 13.34570312 C9.53827083 11.56591479 4.76887069 9.78367567 0 8 C0 5.36 0 2.72 0 0 Z " fill="#6D6D6D" transform="translate(30,151)"/>
</svg>
