<?xml version="1.0" encoding="UTF-8"?>
<svg version="1.1" xmlns="http://www.w3.org/2000/svg" width="512" height="512">
<path d="M0 0 C5.55919891 2.4735312 9.60126754 6.89818518 14 11 C14.64791504 11.60279785 15.29583008 12.2055957 15.96337891 12.82666016 C23.73547232 20.06855314 31.42890134 27.35999397 38.890625 34.921875 C40.80557397 36.80845435 42.76641211 38.57078882 44.8125 40.3125 C48.57134888 43.5223892 52.02742407 46.98790122 55.5 50.5 C58.91069793 53.94938442 62.29621535 57.36119945 66 60.5 C70.32103455 64.16189369 74.2350509 68.20923952 78.21386719 72.23339844 C81.66982094 75.71350562 85.20109534 79.02101616 88.95117188 82.18554688 C91.30705698 84.2719313 93.51740063 86.46990906 95.734375 88.703125 C96.53584961 89.50911133 97.33732422 90.31509766 98.16308594 91.14550781 C98.76926758 91.75749023 99.37544922 92.36947266 100 93 C100.01401855 91.32043213 100.01401855 91.32043213 100.02832031 89.60693359 C100.06832161 85.43563684 100.13410805 81.26506978 100.20751953 77.09423828 C100.23567053 75.29225061 100.25691422 73.49014081 100.27099609 71.68798828 C100.29250755 69.09083802 100.33919757 66.49514705 100.390625 63.8984375 C100.39185364 63.0982016 100.39308228 62.2979657 100.39434814 61.47348022 C100.53071977 56.21509336 101.43668246 53.10756851 105 49 C109.5723571 45.3230659 113.10595442 44.41684272 118.83789062 44.48242188 C119.5996611 44.4754126 120.36143158 44.46840332 121.14628601 44.46118164 C123.64998447 44.44365882 126.1525412 44.45520329 128.65625 44.46875 C130.40450252 44.46605342 132.15275357 44.46216962 133.90100098 44.45715332 C137.55930912 44.45126604 141.21722576 44.4597962 144.87548828 44.47851562 C149.55634985 44.50130493 154.23629395 44.48817768 158.91712189 44.46422577 C162.52548084 44.44974684 166.13362355 44.45438334 169.74198914 44.46473694 C171.46750498 44.46739844 173.19304069 44.46415478 174.91853333 44.45481873 C177.33358492 44.44461823 179.74716679 44.46020127 182.16210938 44.48242188 C182.86981979 44.47432495 183.57753021 44.46622803 184.3066864 44.45788574 C189.30993903 44.54283769 192.1238855 45.90231881 196 49 C199.46731649 52.94556704 200.12540666 56.19084406 200.10438538 61.35612488 C200.10172668 63.02359268 200.10172668 63.02359268 200.09901428 64.7247467 C200.09220139 65.94504074 200.08538849 67.16533478 200.07836914 68.42260742 C200.07383953 70.39488931 200.0693236 72.36717127 200.06532085 74.33945429 C200.0604514 76.4608846 200.0534877 78.58230184 200.04640388 80.70372581 C200.03322225 85.12943876 200.03495939 89.55506463 200.04063416 93.98078918 C200.04201428 95.10171873 200.04201428 95.10171873 200.04342228 96.24529332 C200.04639369 98.54699262 200.04955865 100.8486916 200.05273438 103.15039062 C200.06552167 112.67960453 200.06756034 122.20840733 200.02416992 131.73754883 C199.9926276 138.68787544 199.98940784 145.63757573 200.01892942 152.58792001 C200.03345314 156.26399797 200.03373809 159.93882354 199.99952888 163.61479759 C199.9616472 167.72085215 199.98629948 171.82429672 200.01586914 175.93041992 C199.99488663 177.1405928 199.97390411 178.35076569 199.95228577 179.59761047 C200.04893823 185.65372144 200.48359766 189.20484786 204.83103943 193.61763 C206.19416214 194.77702292 207.58333834 195.90667242 209 197 C210.23317398 198.05784633 211.46297204 199.11965721 212.6875 200.1875 C213.34105469 200.74824219 213.99460937 201.30898437 214.66796875 201.88671875 C217.72069613 204.65309314 220.60409215 207.57104799 223.5 210.5 C227.48381728 214.52901731 231.50533005 218.3883071 235.83203125 222.05078125 C239.48849065 225.33830061 242.90829978 228.86848258 246.34570312 232.3828125 C249.41022681 235.49586092 252.5169423 238.34408772 256 241 C255.74268542 244.24670458 254.83325016 245.16190542 252.4453125 247.48046875 C251.34645526 248.39243294 250.23913541 249.29426531 249.125 250.1875 C248.54363281 250.66582275 247.96226562 251.14414551 247.36328125 251.63696289 C245.58215526 253.09964955 243.79132387 254.54983331 242 256 C240.95478671 256.8582285 239.91046196 257.71754068 238.8671875 258.578125 C236.25306296 260.72925746 233.63158171 262.87027442 231 265 C230.154375 265.76441406 229.30875 266.52882813 228.4375 267.31640625 C226 269 226 269 224.07543945 268.81689453 C221.54308736 267.82015884 220.24292349 266.56962671 218.35546875 264.61328125 C217.67806641 263.92169922 217.00066406 263.23011719 216.30273438 262.51757812 C215.60470703 261.78990234 214.90667969 261.06222656 214.1875 260.3125 C212.80850721 258.88948302 211.42702075 257.46887804 210.04296875 256.05078125 C209.43477295 255.41825439 208.82657715 254.78572754 208.19995117 254.1340332 C205.26181319 251.28393176 202.10792331 248.66393427 199 246 C198.67 311.01 198.34 376.02 198 443 C213.84 443 229.68 443 246 443 C253 447 253 447 257 454 C257 471.16 257 488.32 257 506 C88.04 506 -80.92 506 -255 506 C-255 454 -255 454 -251 447 C-235.04016794 437.88009597 -214.38175424 443 -196 443 C-196.33 377.99 -196.66 312.98 -197 246 C-208.60622985 256.66129954 -208.60622985 256.66129954 -219.421875 267.875 C-221 269 -221 269 -222.82421875 269 C-226.0123517 267.53471807 -228.4592599 265.30408365 -231.0625 263 C-232.21937277 261.99791313 -233.37693671 260.9966237 -234.53515625 259.99609375 C-235.11410645 259.49319824 -235.69305664 258.99030273 -236.28955078 258.47216797 C-238.82420363 256.29061549 -241.40824773 254.17599133 -244 252.0625 C-244.845625 251.37285156 -245.69125 250.68320313 -246.5625 249.97265625 C-249.03420112 247.97232121 -251.51489323 245.98364772 -254 244 C-253.57632704 239.65230843 -250.74157337 237.6184855 -247.625 234.9375 C-246.52665031 233.96448751 -245.43034325 232.98916511 -244.3359375 232.01171875 C-243.5001416 231.26607666 -243.5001416 231.26607666 -242.64746094 230.50537109 C-240.09239529 228.17067418 -237.67874894 225.71616664 -235.25 223.25 C-232.29045618 220.25672919 -229.33304959 217.34982873 -226.125 214.625 C-222.38456778 211.43870588 -218.95196232 207.99120031 -215.5 204.5 C-211.51223718 200.46701163 -207.48505089 196.60597533 -203.15625 192.9375 C-200.15385317 190.23969415 -197.33739183 187.36956181 -194.5 184.5 C-190.51223169 180.4670189 -186.48505095 176.60597538 -182.15625 172.9375 C-179.15385317 170.23969415 -176.33739183 167.36956181 -173.5 164.5 C-169.51223169 160.4670189 -165.48505095 156.60597538 -161.15625 152.9375 C-158.15385317 150.23969415 -155.33739183 147.36956181 -152.5 144.5 C-148.51223169 140.4670189 -144.48505095 136.60597538 -140.15625 132.9375 C-137.15385317 130.23969415 -134.33739183 127.36956181 -131.5 124.5 C-127.51223169 120.4670189 -123.48505095 116.60597538 -119.15625 112.9375 C-116.15385317 110.23969415 -113.33739183 107.36956181 -110.5 104.5 C-106.51223169 100.4670189 -102.48505095 96.60597538 -98.15625 92.9375 C-95.15385317 90.23969415 -92.33739183 87.36956181 -89.5 84.5 C-85.51223169 80.4670189 -81.48505095 76.60597538 -77.15625 72.9375 C-74.15385317 70.23969415 -71.33739183 67.36956181 -68.5 64.5 C-64.51223169 60.4670189 -60.48505095 56.60597538 -56.15625 52.9375 C-53.15385317 50.23969415 -50.33739183 47.36956181 -47.5 44.5 C-43.51223169 40.4670189 -39.48505095 36.60597538 -35.15625 32.9375 C-31.55298931 29.69978749 -28.19544275 26.21481371 -24.79052734 22.77099609 C-21.24346278 19.1990907 -17.60964842 15.8088175 -13.76953125 12.55078125 C-11.25679268 10.3486682 -8.94921395 7.96089677 -6.609375 5.578125 C-4.53590299 3.54491458 -2.31317144 1.7524026 0 0 Z " fill="#E8E9ED" transform="translate(255,3)"/>
<path d="M0 0 C5.55919891 2.4735312 9.60126754 6.89818518 14 11 C14.64791504 11.60279785 15.29583008 12.2055957 15.96337891 12.82666016 C23.73547232 20.06855314 31.42890134 27.35999397 38.890625 34.921875 C40.80557397 36.80845435 42.76641211 38.57078882 44.8125 40.3125 C48.57134888 43.5223892 52.02742407 46.98790122 55.5 50.5 C58.91069793 53.94938442 62.29621535 57.36119945 66 60.5 C70.32103455 64.16189369 74.2350509 68.20923952 78.21386719 72.23339844 C81.66982094 75.71350562 85.20109534 79.02101616 88.95117188 82.18554688 C91.30705698 84.2719313 93.51740063 86.46990906 95.734375 88.703125 C96.53584961 89.50911133 97.33732422 90.31509766 98.16308594 91.14550781 C98.76926758 91.75749023 99.37544922 92.36947266 100 93 C100.01401855 91.32043213 100.01401855 91.32043213 100.02832031 89.60693359 C100.06832161 85.43563684 100.13410805 81.26506978 100.20751953 77.09423828 C100.23567053 75.29225061 100.25691422 73.49014081 100.27099609 71.68798828 C100.29250755 69.09083802 100.33919757 66.49514705 100.390625 63.8984375 C100.39185364 63.0982016 100.39308228 62.2979657 100.39434814 61.47348022 C100.53071977 56.21509336 101.43668246 53.10756851 105 49 C109.5723571 45.3230659 113.10595442 44.41684272 118.83789062 44.48242188 C119.5996611 44.4754126 120.36143158 44.46840332 121.14628601 44.46118164 C123.64998447 44.44365882 126.1525412 44.45520329 128.65625 44.46875 C130.40450252 44.46605342 132.15275357 44.46216962 133.90100098 44.45715332 C137.55930912 44.45126604 141.21722576 44.4597962 144.87548828 44.47851562 C149.55634985 44.50130493 154.23629395 44.48817768 158.91712189 44.46422577 C162.52548084 44.44974684 166.13362355 44.45438334 169.74198914 44.46473694 C171.46750498 44.46739844 173.19304069 44.46415478 174.91853333 44.45481873 C177.33358492 44.44461823 179.74716679 44.46020127 182.16210938 44.48242188 C182.86981979 44.47432495 183.57753021 44.46622803 184.3066864 44.45788574 C189.30993903 44.54283769 192.1238855 45.90231881 196 49 C199.46731649 52.94556704 200.12540666 56.19084406 200.10438538 61.35612488 C200.10172668 63.02359268 200.10172668 63.02359268 200.09901428 64.7247467 C200.09220139 65.94504074 200.08538849 67.16533478 200.07836914 68.42260742 C200.07383953 70.39488931 200.0693236 72.36717127 200.06532085 74.33945429 C200.0604514 76.4608846 200.0534877 78.58230184 200.04640388 80.70372581 C200.03322225 85.12943876 200.03495939 89.55506463 200.04063416 93.98078918 C200.04201428 95.10171873 200.04201428 95.10171873 200.04342228 96.24529332 C200.04639369 98.54699262 200.04955865 100.8486916 200.05273438 103.15039062 C200.06552167 112.67960453 200.06756034 122.20840733 200.02416992 131.73754883 C199.9926276 138.68787544 199.98940784 145.63757573 200.01892942 152.58792001 C200.03345314 156.26399797 200.03373809 159.93882354 199.99952888 163.61479759 C199.9616472 167.72085215 199.98629948 171.82429672 200.01586914 175.93041992 C199.99488663 177.1405928 199.97390411 178.35076569 199.95228577 179.59761047 C200.04893823 185.65372144 200.48359766 189.20484786 204.83103943 193.61763 C206.19416214 194.77702292 207.58333834 195.90667242 209 197 C210.23317398 198.05784633 211.46297204 199.11965721 212.6875 200.1875 C213.34105469 200.74824219 213.99460937 201.30898437 214.66796875 201.88671875 C217.72069613 204.65309314 220.60409215 207.57104799 223.5 210.5 C227.48381728 214.52901731 231.50533005 218.3883071 235.83203125 222.05078125 C239.48849065 225.33830061 242.90829978 228.86848258 246.34570312 232.3828125 C249.41022681 235.49586092 252.5169423 238.34408772 256 241 C255.74268542 244.24670458 254.83325016 245.16190542 252.4453125 247.48046875 C251.34645526 248.39243294 250.23913541 249.29426531 249.125 250.1875 C248.54363281 250.66582275 247.96226562 251.14414551 247.36328125 251.63696289 C245.58215526 253.09964955 243.79132387 254.54983331 242 256 C240.95478671 256.8582285 239.91046196 257.71754068 238.8671875 258.578125 C236.25306296 260.72925746 233.63158171 262.87027442 231 265 C230.154375 265.76441406 229.30875 266.52882813 228.4375 267.31640625 C226 269 226 269 224.07324219 268.81469727 C221.55481473 267.82506085 220.26682092 266.59384151 218.390625 264.6484375 C217.71773438 263.96136719 217.04484375 263.27429688 216.3515625 262.56640625 C215.65804688 261.84324219 214.96453125 261.12007813 214.25 260.375 C210.25766622 256.25363642 206.29881841 252.19295467 201.921875 248.4765625 C198.5190376 245.56192572 195.65726953 242.39930949 192.75976562 238.99072266 C189.81067639 235.65458592 186.5317026 232.69092957 183.25 229.6875 C178.40802974 225.20800626 173.63525897 220.6935234 169 216 C166.14382951 213.10997861 163.28549257 210.31590212 160.1875 207.6875 C156.24598475 204.33111691 152.63862238 200.67681813 149 197 C143.65535023 191.58504866 143.65535023 191.58504866 138 186.5 C133.44062265 182.64811224 129.32753136 178.35187792 125.1328125 174.11328125 C122.17059157 171.13199023 119.21292402 168.21436684 116 165.5 C111.44062265 161.64811224 107.32753136 157.35187792 103.1328125 153.11328125 C100.17059157 150.13199023 97.21292402 147.21436684 94 144.5 C89.44062265 140.64811224 85.32753136 136.35187792 81.1328125 132.11328125 C78.17059157 129.13199023 75.21292402 126.21436684 72 123.5 C67.44062265 119.64811224 63.32753136 115.35187792 59.1328125 111.11328125 C56.17059157 108.13199023 53.21292402 105.21436684 50 102.5 C45.44062265 98.64811224 41.32753136 94.35187792 37.1328125 90.11328125 C34.17059157 87.13199023 31.21292402 84.21436684 28 81.5 C23.45165351 77.65743141 19.34778308 73.37275285 15.16357422 69.14404297 C10.94083876 64.89376044 6.62212447 60.81827674 2 57 C-0.8561314 58.30587099 -3.00176248 59.72119175 -5.28515625 61.87109375 C-5.89286865 62.44013428 -6.50058105 63.0091748 -7.12670898 63.59545898 C-7.76552002 64.20333252 -8.40433105 64.81120605 -9.0625 65.4375 C-10.05842163 66.37541382 -10.05842163 66.37541382 -11.07446289 67.33227539 C-16.0144588 72.0057269 -20.82124098 76.79641683 -25.6015625 81.6328125 C-27.61530978 83.62032203 -29.65642893 85.4839334 -31.8125 87.3125 C-35.75401525 90.66888309 -39.36137762 94.32318187 -43 98 C-47.14507609 102.18845164 -51.30916368 106.22670725 -55.8125 110.03125 C-58.99820751 112.89838676 -61.98584758 115.95431879 -65 119 C-69.14508331 123.18844192 -73.30916359 127.22670717 -77.8125 131.03125 C-80.99820751 133.89838676 -83.98584758 136.95431879 -87 140 C-91.14508331 144.18844192 -95.30916359 148.22670717 -99.8125 152.03125 C-102.99820751 154.89838676 -105.98584758 157.95431879 -109 161 C-113.14508331 165.18844192 -117.30916359 169.22670717 -121.8125 173.03125 C-124.99820751 175.89838676 -127.98584758 178.95431879 -131 182 C-135.14508331 186.18844192 -139.30916359 190.22670717 -143.8125 194.03125 C-146.99820751 196.89838676 -149.98584758 199.95431879 -153 203 C-157.14508331 207.18844192 -161.30916359 211.22670717 -165.8125 215.03125 C-169.65253051 218.48727746 -173.23191508 222.21129129 -176.86279297 225.88452148 C-179.85963361 228.90351023 -182.85638219 231.83409308 -186.125 234.5625 C-190.32248543 238.10243943 -193.89486825 242.1790409 -197.57641602 246.23803711 C-200.84011599 249.81227089 -204.18965714 253.07803965 -207.92578125 256.1640625 C-209.64665694 257.68724814 -211.2129522 259.23498247 -212.79296875 260.8984375 C-213.2820874 261.40938965 -213.77120605 261.9203418 -214.27514648 262.44677734 C-215.24252954 263.46556413 -216.199545 264.49431852 -217.14477539 265.53369141 C-220.41685227 268.96260375 -220.41685227 268.96260375 -222.94921875 269.125 C-225.9806048 267.46206822 -228.48764943 265.27895656 -231.0625 263 C-232.21937277 261.99791313 -233.37693671 260.9966237 -234.53515625 259.99609375 C-235.11410645 259.49319824 -235.69305664 258.99030273 -236.28955078 258.47216797 C-238.82420363 256.29061549 -241.40824773 254.17599133 -244 252.0625 C-244.845625 251.37285156 -245.69125 250.68320313 -246.5625 249.97265625 C-249.03420112 247.97232121 -251.51489323 245.98364772 -254 244 C-253.57632704 239.65230843 -250.74157337 237.6184855 -247.625 234.9375 C-246.52665031 233.96448751 -245.43034325 232.98916511 -244.3359375 232.01171875 C-243.5001416 231.26607666 -243.5001416 231.26607666 -242.64746094 230.50537109 C-240.09239529 228.17067418 -237.67874894 225.71616664 -235.25 223.25 C-232.29045618 220.25672919 -229.33304959 217.34982873 -226.125 214.625 C-222.38456778 211.43870588 -218.95196232 207.99120031 -215.5 204.5 C-211.51223718 200.46701163 -207.48505089 196.60597533 -203.15625 192.9375 C-200.15385317 190.23969415 -197.33739183 187.36956181 -194.5 184.5 C-190.51223169 180.4670189 -186.48505095 176.60597538 -182.15625 172.9375 C-179.15385317 170.23969415 -176.33739183 167.36956181 -173.5 164.5 C-169.51223169 160.4670189 -165.48505095 156.60597538 -161.15625 152.9375 C-158.15385317 150.23969415 -155.33739183 147.36956181 -152.5 144.5 C-148.51223169 140.4670189 -144.48505095 136.60597538 -140.15625 132.9375 C-137.15385317 130.23969415 -134.33739183 127.36956181 -131.5 124.5 C-127.51223169 120.4670189 -123.48505095 116.60597538 -119.15625 112.9375 C-116.15385317 110.23969415 -113.33739183 107.36956181 -110.5 104.5 C-106.51223169 100.4670189 -102.48505095 96.60597538 -98.15625 92.9375 C-95.15385317 90.23969415 -92.33739183 87.36956181 -89.5 84.5 C-85.51223169 80.4670189 -81.48505095 76.60597538 -77.15625 72.9375 C-74.15385317 70.23969415 -71.33739183 67.36956181 -68.5 64.5 C-64.51223169 60.4670189 -60.48505095 56.60597538 -56.15625 52.9375 C-53.15385317 50.23969415 -50.33739183 47.36956181 -47.5 44.5 C-43.51223169 40.4670189 -39.48505095 36.60597538 -35.15625 32.9375 C-31.55298931 29.69978749 -28.19544275 26.21481371 -24.79052734 22.77099609 C-21.24346278 19.1990907 -17.60964842 15.8088175 -13.76953125 12.55078125 C-11.25679268 10.3486682 -8.94921395 7.96089677 -6.609375 5.578125 C-4.53590299 3.54491458 -2.31317144 1.7524026 0 0 Z " fill="#E94756" transform="translate(255,3)"/>
<path d="M0 0 C1.15245712 -0.0112793 2.30491425 -0.02255859 3.49229431 -0.03417969 C4.75268021 -0.02608276 6.0130661 -0.01798584 7.31164551 -0.00964355 C8.65548969 -0.01506506 9.99932793 -0.02218789 11.34315491 -0.03088379 C14.9899128 -0.04911718 18.63621798 -0.0420499 22.28298378 -0.02936745 C26.09947555 -0.01923971 29.91592858 -0.02863249 33.73242188 -0.03491211 C40.14155028 -0.0421892 46.55049431 -0.0325993 52.95959473 -0.0135498 C60.36922656 0.00821922 67.77841814 0.00116788 75.1880393 -0.02085543 C81.54995158 -0.03900778 87.91173133 -0.04156861 94.27366114 -0.03110075 C98.07329684 -0.02486485 101.87272562 -0.02403266 105.67234802 -0.0372467 C109.24463952 -0.04880238 112.81636348 -0.04078557 116.38859367 -0.01766968 C118.3248555 -0.00985817 120.26116533 -0.02174098 122.19740295 -0.03417969 C123.34986008 -0.02290039 124.5023172 -0.01162109 125.68969727 0 C126.69109993 0.0015081 127.69250259 0.0030162 128.72425079 0.00457001 C131.34484863 0.50793457 131.34484863 0.50793457 133.66823196 1.96863174 C136.18247577 5.77655428 135.88537129 9.1735331 135.8258667 13.64471436 C135.8292844 14.57918199 135.8327021 15.51364963 135.83622336 16.47643447 C135.84282454 19.61517389 135.82078887 22.75306268 135.7989502 25.89172363 C135.7978222 28.13859029 135.79845463 30.38545842 135.80072021 32.63232422 C135.80187017 38.73945916 135.77831508 44.84628129 135.75042439 50.95334339 C135.72545769 57.3328322 135.72307246 63.71232779 135.71832275 70.09185791 C135.7072938 80.80190484 135.68229117 91.51181472 135.64660645 102.22180176 C135.60988954 113.253046 135.5816221 124.28425886 135.5645752 135.31555176 C135.56350321 136.00247046 135.56243122 136.68938916 135.56132674 137.39712358 C135.55207534 143.37234194 135.54346415 149.3475612 135.53491592 155.32278061 C135.49727822 181.05127344 135.41759644 206.7794616 135.34484863 232.50793457 C87.49484863 232.50793457 39.64484863 232.50793457 -9.65515137 232.50793457 C-9.8163635 175.4925755 -9.8163635 175.4925755 -9.85046387 151.65637207 C-9.85831875 146.2094315 -9.86637756 140.76249136 -9.87487793 135.31555176 C-9.87593292 134.63284958 -9.87698792 133.9501474 -9.87807488 133.24675727 C-9.8954807 122.21943153 -9.92702064 111.19218906 -9.96376255 100.16491273 C-10.00114492 88.85121056 -10.02308198 77.53757015 -10.03150535 66.22380233 C-10.03672921 59.86762684 -10.04904349 53.51164027 -10.07807159 47.15552521 C-10.1051553 41.176911 -10.11361057 35.19856413 -10.10758209 29.21989441 C-10.10868548 27.02203165 -10.11668099 24.82416024 -10.13197327 22.6263504 C-10.15179062 19.63213991 -10.14712047 16.63894699 -10.13616943 13.64471436 C-10.1478208 12.76922951 -10.15947217 11.89374466 -10.1714766 10.99172997 C-10.13430036 7.24722363 -10.07569836 5.14486976 -7.9785347 1.96863174 C-5.10372893 0.16125859 -3.38792938 0.00510219 0 0 Z " fill="#C87423" transform="translate(109.6551513671875,276.4920654296875)"/>
<path d="M0 0 C1.3039119 -0.0112793 2.60782379 -0.02255859 3.95124817 -0.03417969 C5.39438088 -0.02640263 6.8375114 -0.01820996 8.28063965 -0.00964355 C9.80182058 -0.01506422 11.32299626 -0.02218657 12.84416199 -0.03088379 C16.97435807 -0.04912693 21.10415472 -0.0420457 25.23435783 -0.02936745 C29.5553381 -0.01924484 33.87628402 -0.02863106 38.19726562 -0.03491211 C45.45379786 -0.04219068 52.71016729 -0.03259535 59.9666748 -0.0135498 C68.35785739 0.00821941 76.74865123 0.00116818 85.13982439 -0.02085543 C92.34248957 -0.03900349 99.54503768 -0.04157068 106.74771833 -0.03110075 C111.05036765 -0.02486252 115.35283421 -0.02403914 119.6554718 -0.0372467 C123.7005058 -0.04879604 127.7450383 -0.04079672 131.79001808 -0.01766968 C133.27511067 -0.01237761 134.76024542 -0.01390493 136.24532127 -0.02272034 C138.27119827 -0.03363781 140.29716743 -0.01752415 142.32299805 0 C143.4571389 0.0015081 144.59127975 0.0030162 145.75978851 0.00457001 C149.38084171 0.63272015 150.55339831 1.51987792 152.66149902 4.50793457 C153.1676569 7.11012173 153.1676569 7.11012173 153.17616272 10.11839294 C153.18888718 11.26099075 153.20161163 12.40358856 153.21472168 13.58081055 C153.2081958 14.83027466 153.20166992 16.07973877 153.19494629 17.36706543 C153.20356186 18.68610367 153.21217743 20.00514191 153.22105408 21.364151 C153.24355923 24.97996839 153.24060586 28.59534829 153.23173261 32.21120906 C153.22662271 35.23064253 153.23391531 38.24999378 153.24120468 41.26941878 C153.25820747 48.39318657 153.25463442 55.51674019 153.23791504 62.64050293 C153.22099413 69.98770014 153.23682643 77.33430322 153.26913792 84.68143553 C153.29583664 90.99156557 153.3031091 97.30151069 153.29462284 103.61169153 C153.28969422 107.37956175 153.29190509 111.1470745 153.31241035 114.91489983 C153.3307723 118.45855769 153.32480412 122.00136137 153.30021095 125.54497337 C153.29281927 127.4631671 153.31005496 129.38140631 153.32803345 131.29953003 C153.31537949 132.44494766 153.30272552 133.5903653 153.28968811 134.77049255 C153.2891018 135.76359908 153.28851549 136.75670561 153.28791142 137.77990627 C152.40071355 141.64365628 150.78387458 143.12612024 147.66149902 145.50793457 C144.67076874 146.13714027 144.67076874 146.13714027 141.28540039 146.14285278 C139.9983873 146.1569519 138.71137421 146.17105103 137.38536072 146.18557739 C135.96633558 146.17585667 134.54731393 146.16561587 133.1282959 146.15490723 C131.62829019 146.16168519 130.12829281 146.17058933 128.62831116 146.18145752 C124.5600116 146.20423675 120.49234656 146.19542059 116.42403603 146.17956209 C112.16491623 146.16689581 107.90585046 146.17864522 103.64672852 146.18649292 C96.49448907 146.19558739 89.34250785 146.183607 82.19030762 146.15979004 C73.92344644 146.13257899 65.65720183 146.14139331 57.39035559 146.16892207 C50.29039406 146.19161802 43.19061805 146.19481089 36.09063196 146.18172872 C31.85108491 146.17393682 27.61182759 146.17288525 23.37229919 146.18941116 C19.3862366 146.20386394 15.40096824 146.19382046 11.41499138 146.16493988 C9.95289872 146.15833323 8.49073912 146.1602197 7.02867317 146.1712532 C5.03167242 146.18493323 3.03452544 146.16472896 1.03759766 146.14285278 C-0.0795739 146.14096766 -1.19674545 146.13908253 -2.34777069 146.13714027 C-6.38460777 145.28784907 -7.86584338 143.76388469 -10.33850098 140.50793457 C-10.96491337 137.77990627 -10.96491337 137.77990627 -10.96669006 134.77049255 C-10.97934402 133.62507492 -10.99199799 132.47965729 -11.0050354 131.29953003 C-10.9933432 130.05209015 -10.981651 128.80465027 -10.96960449 127.51940918 C-10.97474556 126.18526763 -10.98202826 124.85113287 -10.99128723 123.51701355 C-11.00978463 119.90119749 -10.99687476 116.2861198 -10.97719693 112.67033458 C-10.96079835 108.88454898 -10.96962484 105.09880971 -10.97471619 101.31300354 C-10.97923527 94.95688087 -10.96337771 88.60105267 -10.9354248 82.24499512 C-10.9033597 74.89724448 -10.90339441 67.5500245 -10.92063957 60.20223612 C-10.93650344 53.1312577 -10.92977299 46.06047377 -10.91270256 38.98950386 C-10.90583131 35.98117455 -10.90686514 32.97300111 -10.91424751 29.964674 C-10.92333157 25.7651712 -10.89937764 21.56648832 -10.87194824 17.36706543 C-10.87847412 16.11760132 -10.885 14.86813721 -10.89172363 13.58081055 C-10.87899918 12.43821274 -10.86627472 11.29561493 -10.85316467 10.11839294 C-10.85035775 9.12566344 -10.84755083 8.13293394 -10.84465885 7.11012173 C-9.64169838 0.92563178 -5.72609098 0.00761416 0 0 Z " fill="#8E4A11" transform="translate(277.3385009765625,276.4920654296875)"/>
<path d="M0 0 C0.87577664 -0.00709439 1.75155329 -0.01418877 2.65386862 -0.02149814 C5.5705173 -0.03901433 8.48582206 -0.02100605 11.40245056 -0.00291443 C13.50062667 -0.00805564 15.59879847 -0.01533843 17.69696045 -0.02459717 C23.38288889 -0.04309232 29.06834767 -0.03018463 34.75425649 -0.01050687 C40.70872485 0.00589415 46.66316381 -0.0029352 52.61764526 -0.00802612 C62.61532584 -0.01254508 72.6128192 0.00331155 82.61045837 0.03126526 C94.16560388 0.06332488 105.72041192 0.06329729 117.27558142 0.04605049 C128.39750335 0.03018253 139.51930166 0.03692018 150.64121819 0.0539875 C155.37194043 0.06085624 160.10256354 0.05982734 164.83328438 0.05244255 C170.40416749 0.04477698 175.97466685 0.05691518 181.54548454 0.08429146 C183.58887467 0.09117311 185.63230066 0.09127564 187.6756897 0.08407593 C190.46708153 0.07537455 193.2572909 0.09134896 196.04858398 0.11352539 C196.85540007 0.10528462 197.66221616 0.09704386 198.49348122 0.08855337 C204.10327459 0.17069959 207.43886187 1.22173253 211.96080017 4.62818909 C221.74059794 21.74283519 215.96080017 43.9163765 215.96080017 63.62818909 C137.75080017 63.62818909 59.54080017 63.62818909 -21.03919983 63.62818909 C-21.03919983 12.62818909 -21.03919983 12.62818909 -17.03919983 5.62818909 C-12.03485228 0.80937728 -6.70907268 -0.09869277 0 0 Z " fill="#85C10D" transform="translate(296.03919982910156,445.37181091308594)"/>
<path d="M0 0 C2.8561314 1.30587099 5.00176248 2.72119175 7.28515625 4.87109375 C7.89286865 5.44013428 8.50058105 6.0091748 9.12670898 6.59545898 C9.76552002 7.20333252 10.40433105 7.81120605 11.0625 8.4375 C11.72644775 9.06277588 12.39039551 9.68805176 13.07446289 10.33227539 C18.0144588 15.0057269 22.82124098 19.79641683 27.6015625 24.6328125 C29.61530978 26.62032203 31.65642893 28.4839334 33.8125 30.3125 C37.75401525 33.66888309 41.36137762 37.32318187 45 41 C50.34464977 46.41495134 50.34464977 46.41495134 56 51.5 C60.55937735 55.35188776 64.67246864 59.64812208 68.8671875 63.88671875 C71.82940843 66.86800977 74.78707598 69.78563316 78 72.5 C82.55937735 76.35188776 86.67246864 80.64812208 90.8671875 84.88671875 C93.82940843 87.86800977 96.78707598 90.78563316 100 93.5 C104.55937735 97.35188776 108.67246864 101.64812208 112.8671875 105.88671875 C115.82940843 108.86800977 118.78707598 111.78563316 122 114.5 C126.55937735 118.35188776 130.67246864 122.64812208 134.8671875 126.88671875 C137.82940843 129.86800977 140.78707598 132.78563316 144 135.5 C148.55937735 139.35188776 152.67246864 143.64812208 156.8671875 147.88671875 C159.82940843 150.86800977 162.78707598 153.78563316 166 156.5 C170.55307423 160.34656271 174.66089483 164.63619467 178.84960938 168.86914062 C182.49131581 172.53446894 186.17751306 176.07189763 190.15625 179.375 C190.7646875 179.91125 191.373125 180.4475 192 181 C193.05445313 181.72445312 194.10890625 182.44890625 195.1953125 183.1953125 C198.53677446 186.56595753 198.46457911 189.74762945 198.5859375 194.3671875 C198.56775674 197.20581522 198.47612903 200.038299 198.375 202.875 C198.34487484 204.34109132 198.31750348 205.80724197 198.29296875 207.2734375 C198.22714448 210.85019911 198.123767 214.42472044 198 218 C188.70377161 210.09317673 179.78888895 201.87736504 171.21557617 193.19628906 C168.60127573 190.56098506 165.95761996 188.02368669 163.125 185.625 C159.20167668 182.29263751 155.61791333 178.65584689 152 175 C146.65534914 169.58504999 146.65534914 169.58504999 141 164.5 C136.44062265 160.64811224 132.32753136 156.35187792 128.1328125 152.11328125 C125.17059157 149.13199023 122.21292402 146.21436684 119 143.5 C114.44062265 139.64811224 110.32753136 135.35187792 106.1328125 131.11328125 C103.17059157 128.13199023 100.21292402 125.21436684 97 122.5 C93.11285239 119.21603046 89.57645583 115.61386156 86 112 C80.6879844 106.61461721 80.6879844 106.61461721 75.0625 101.5625 C70.25103638 97.49925535 65.91823345 92.94173997 61.49072266 88.47119141 C57.83169113 84.7902331 54.12268808 81.27841337 50.15234375 77.93359375 C46.32041767 74.49111932 42.75498084 70.77333598 39.13256836 67.11303711 C36.17043018 64.13182682 33.21283566 61.2142922 30 58.5 C26.11279085 55.21597848 22.57693759 51.61346563 19 48 C10.38922846 38.82735392 10.38922846 38.82735392 0 32 C-0.4846875 32.49628906 -0.969375 32.99257812 -1.46875 33.50390625 C-4.7579281 36.83736175 -8.0492118 40.09873769 -11.625 43.125 C-15.62147638 46.5528078 -19.29932129 50.260336 -23 54 C-27.14506887 58.18846137 -31.30916378 62.22670733 -35.8125 66.03125 C-38.99820768 68.89838692 -41.98584545 71.95432076 -45 75 C-52.28104289 82.35711491 -52.28104289 82.35711491 -55.9375 85.4375 C-60.02621151 88.89038596 -63.73734698 92.70077198 -67.5 96.5 C-71.82328655 100.8653112 -76.14676831 105.10613961 -80.84765625 109.06640625 C-84.67958233 112.50888068 -88.24501916 116.22666402 -91.86743164 119.88696289 C-95.39478378 123.43702635 -98.98881816 126.8008981 -102.8125 130.03125 C-105.99820751 132.89838676 -108.98584758 135.95431879 -112 139 C-116.14508331 143.18844192 -120.30916359 147.22670717 -124.8125 151.03125 C-127.99820751 153.89838676 -130.98584758 156.95431879 -134 160 C-138.14508331 164.18844192 -142.30916359 168.22670717 -146.8125 172.03125 C-149.99820751 174.89838676 -152.98584758 177.95431879 -156 181 C-160.14508331 185.18844192 -164.30916359 189.22670717 -168.8125 193.03125 C-171.99822102 195.89839892 -174.98566313 198.9544817 -178 202 C-189.67070343 213.78046895 -189.67070343 213.78046895 -196 218 C-198.07875019 189.01476011 -198.07875019 189.01476011 -193.609375 182.515625 C-190.78419385 179.432015 -187.5218573 177.2284705 -184 175 C-182.68532505 173.90197561 -181.39019129 172.77969423 -180.125 171.625 C-179.50882813 171.10164062 -178.89265625 170.57828125 -178.2578125 170.0390625 C-175.05226512 167.14408718 -172.03762556 164.06947485 -169 161 C-164.8549215 156.8115516 -160.69083635 152.77329278 -156.1875 148.96875 C-153.00179249 146.10161324 -150.01415242 143.04568121 -147 140 C-142.85491669 135.81155808 -138.69083641 131.77329283 -134.1875 127.96875 C-131.00179249 125.10161324 -128.01415242 122.04568121 -125 119 C-120.85491669 114.81155808 -116.69083641 110.77329283 -112.1875 106.96875 C-109.00179249 104.10161324 -106.01415242 101.04568121 -103 98 C-98.85491669 93.81155808 -94.69083641 89.77329283 -90.1875 85.96875 C-87.00179249 83.10161324 -84.01415242 80.04568121 -81 77 C-76.85491669 72.81155808 -72.69083641 68.77329283 -68.1875 64.96875 C-65.00179249 62.10161324 -62.01415242 59.04568121 -59 56 C-54.85491669 51.81155808 -50.69083641 47.77329283 -46.1875 43.96875 C-43.00179249 41.10161324 -40.01415242 38.04568121 -37 35 C-32.85491669 30.81155808 -28.69083641 26.77329283 -24.1875 22.96875 C-20.35701548 19.52131393 -16.78728198 15.80629056 -13.16357422 12.14404297 C-8.94083876 7.89376044 -4.62212447 3.81827674 0 0 Z " fill="#D2D3D7" transform="translate(255,59)"/>
<path d="M0 0 C43.23 0 86.46 0 131 0 C131 24.42 131 48.84 131 74 C87.77 74 44.54 74 0 74 C0 49.58 0 25.16 0 0 Z " fill="#A0D9F2" transform="translate(283,332)"/>
<path d="M0 0 C1.14265572 -0.01051392 1.14265572 -0.01051392 2.30839539 -0.02124023 C4.81209385 -0.03876305 7.31465057 -0.02721859 9.81835938 -0.01367188 C11.56661189 -0.01636845 13.31486295 -0.02025225 15.06311035 -0.02526855 C18.7214185 -0.03115584 22.37933513 -0.02262567 26.03759766 -0.00390625 C30.71845923 0.01888305 35.39840332 0.00575581 40.07923126 -0.01819611 C43.68759021 -0.03267504 47.29573292 -0.02803854 50.90409851 -0.01768494 C52.62961436 -0.01502343 54.35515006 -0.0182671 56.0806427 -0.02760315 C58.4956943 -0.03780364 60.90927616 -0.02222061 63.32421875 0 C64.03192917 -0.00809692 64.73963959 -0.01619385 65.46879578 -0.02453613 C70.4720484 0.06041582 73.28599488 1.41989693 77.16210938 4.51757812 C80.64244816 8.47796364 81.28724915 11.74427547 81.28236389 16.92753601 C81.28442589 18.61234573 81.28442589 18.61234573 81.28652954 20.33119202 C81.28113663 22.18048561 81.28113663 22.18048561 81.27563477 24.06713867 C81.27578079 25.36480164 81.27592682 26.6624646 81.27607727 27.99945068 C81.27636451 31.55909067 81.27047957 35.11869706 81.26350331 38.67832923 C81.25725764 42.3979219 81.25666501 46.11751532 81.25547791 49.83711243 C81.25236818 56.88125586 81.24415961 63.92538379 81.23412842 70.96952039 C81.22295617 78.98878228 81.21745402 87.0080449 81.21243298 95.02731264 C81.20197671 111.52407687 81.18438419 128.02082552 81.16210938 144.51757812 C80.04086794 143.55945461 78.92004243 142.60084433 77.7993927 141.64202881 C77.17518842 141.10825497 76.55098413 140.57448112 75.90786457 140.02453232 C73.93341433 138.32016617 72.0116918 136.56972013 70.11132812 134.78320312 C69.41773193 134.13150146 68.72413574 133.4797998 68.00952148 132.80834961 C67.29675049 132.13489502 66.58397949 131.46144043 65.84960938 130.76757812 C65.10267822 130.06383057 64.35574707 129.36008301 63.58618164 128.63500977 C58.7241783 124.03863783 53.97077039 119.35806681 49.27148438 114.59570312 C47.35653541 112.70912377 45.39569726 110.9467893 43.34960938 109.20507812 C39.5907605 105.99518892 36.13468531 102.5296769 32.66210938 99.01757812 C29.25141144 95.5681937 25.86589403 92.15637868 22.16210938 89.01757812 C17.83792232 85.35301282 13.92128647 81.30236947 9.93945312 77.27539062 C6.52950548 73.84170785 3.03813807 70.60374831 -0.65820312 67.47851562 C-4.40988012 64.10335102 -7.91768037 60.47619941 -11.44726562 56.87109375 C-14.350945 53.81527532 -14.350945 53.81527532 -17.83789062 51.51757812 C-17.93702347 45.7884624 -18.00948403 40.05984974 -18.05761719 34.33007812 C-18.07768968 32.38239847 -18.10495394 30.43477876 -18.13964844 28.48730469 C-18.18835915 25.68214092 -18.21090303 22.87777626 -18.22851562 20.07226562 C-18.24916077 19.20640839 -18.26980591 18.34055115 -18.29107666 17.44845581 C-18.29309116 11.97822359 -17.60504924 8.76913042 -13.83789062 4.51757812 C-9.26263152 0.8439077 -5.73301508 -0.0655915 0 0 Z " fill="#9EB0B6" transform="translate(373.837890625,47.482421875)"/>
<path d="M0 0 C1.15245712 -0.0112793 2.30491425 -0.02255859 3.49229431 -0.03417969 C4.75268021 -0.02608276 6.0130661 -0.01798584 7.31164551 -0.00964355 C8.65548969 -0.01506506 9.99932793 -0.02218789 11.34315491 -0.03088379 C14.9899128 -0.04911718 18.63621798 -0.0420499 22.28298378 -0.02936745 C26.09947555 -0.01923971 29.91592858 -0.02863249 33.73242188 -0.03491211 C40.14155028 -0.0421892 46.55049431 -0.0325993 52.95959473 -0.0135498 C60.36922656 0.00821922 67.77841814 0.00116788 75.1880393 -0.02085543 C81.54995158 -0.03900778 87.91173133 -0.04156861 94.27366114 -0.03110075 C98.07329684 -0.02486485 101.87272562 -0.02403266 105.67234802 -0.0372467 C109.24463952 -0.04880238 112.81636348 -0.04078557 116.38859367 -0.01766968 C118.3248555 -0.00985817 120.26116533 -0.02174098 122.19740295 -0.03417969 C123.34986008 -0.02290039 124.5023172 -0.01162109 125.68969727 0 C126.69109993 0.0015081 127.69250259 0.0030162 128.72425079 0.00457001 C131.34484863 0.50793457 131.34484863 0.50793457 133.66823196 1.96863174 C136.18247577 5.77655428 135.88537129 9.1735331 135.8258667 13.64471436 C135.8292844 14.57918199 135.8327021 15.51364963 135.83622336 16.47643447 C135.84282454 19.61517389 135.82078887 22.75306268 135.7989502 25.89172363 C135.7978222 28.13859029 135.79845463 30.38545842 135.80072021 32.63232422 C135.80187017 38.73945916 135.77831508 44.84628129 135.75042439 50.95334339 C135.72545769 57.3328322 135.72307246 63.71232779 135.71832275 70.09185791 C135.7072938 80.80190484 135.68229117 91.51181472 135.64660645 102.22180176 C135.60988954 113.25304591 135.58157623 124.28425884 135.5645752 135.31555176 C135.5635243 135.99553586 135.56247341 136.67551995 135.56139067 137.37610963 C135.55617051 140.78739514 135.55111568 144.19868087 135.54614305 147.60996675 C135.50467715 175.90936853 135.433928 204.20864539 135.34484863 232.50793457 C130.06484863 232.50793457 124.78484863 232.50793457 119.34484863 232.50793457 C119.34484863 160.89793457 119.34484863 89.28793457 119.34484863 15.50793457 C81.72484863 15.50793457 44.10484863 15.50793457 5.34484863 15.50793457 C5.34484863 86.78793457 5.34484863 158.06793457 5.34484863 231.50793457 C0.39484863 231.50793457 -4.55515137 231.50793457 -9.65515137 231.50793457 C-9.74636663 202.65759615 -9.81717188 173.80727471 -9.85941269 144.95682053 C-9.86441562 141.55214607 -9.8695929 138.14747189 -9.87487793 134.74279785 C-9.87592717 134.06497754 -9.87697641 133.38715723 -9.87805745 132.68879691 C-9.89547118 121.70805957 -9.92701416 110.72740584 -9.96376255 99.74671814 C-10.00114511 88.48274298 -10.02308203 77.21880966 -10.03150535 65.95476937 C-10.03672917 59.62653919 -10.04904321 53.29849877 -10.07807159 46.97032928 C-10.10515565 41.01797959 -10.1136105 35.06589842 -10.10758209 29.11349297 C-10.10868547 26.92530548 -10.11668078 24.73710932 -10.13197327 22.54897499 C-10.15179117 19.56790023 -10.14712028 16.58784749 -10.13616943 13.60675049 C-10.1478208 12.73515659 -10.15947217 11.86356269 -10.1714766 10.96555686 C-10.1342213 7.22938141 -10.07262741 5.13962789 -7.9785347 1.97100449 C-5.10360703 0.16061869 -3.38951922 0.00510458 0 0 Z " fill="#8E480E" transform="translate(109.6551513671875,276.4920654296875)"/>
<path d="M0 0 C11.33853103 5.70257495 19.61928338 14.45488719 24.46875 26.21484375 C28.40296371 38.61854532 27.03812 49.99216 21.375 61.5625 C19.375 65 19.375 65 17.375 67.5625 C16.653125 68.5525 15.93125 69.5425 15.1875 70.5625 C8.61609077 78.18931738 -2.21178413 83.8735942 -12.15234375 84.94140625 C-26.27146801 85.17135941 -38.47270347 82.05152996 -49.07421875 72.234375 C-56.84046834 63.86169282 -61.81820915 53.01051648 -62.1875 41.5625 C-61.5996796 27.64043779 -56.35984362 16.82401821 -46.375 7.25 C-33.78486158 -3.43647488 -15.30691244 -6.10926384 0 0 Z " fill="#E94857" transform="translate(273.625,143.4375)"/>
<path d="M0 0 C1.28068863 -0.0038269 2.56137726 -0.00765381 3.88087463 -0.01159668 C6.58329721 -0.01747041 9.2851884 -0.00900034 11.98754883 0.00976562 C15.43183277 0.03253237 18.87486808 0.01943514 22.3191061 -0.00452423 C25.62950092 -0.02255281 28.93956984 -0.00988472 32.25 0 C33.47730331 -0.00809692 34.70460663 -0.01619385 35.96910095 -0.02453613 C43.01214934 0.0521489 47.72250144 0.69833936 53.69140625 4.53125 C57.66880812 8.7126212 58.81897758 11.86485936 58.80493164 17.5534668 C58.80481079 18.5885437 58.80468994 19.62362061 58.80456543 20.69006348 C58.79944946 21.77589722 58.7943335 22.86173096 58.7890625 23.98046875 C58.78805542 24.98001587 58.78704834 25.97956299 58.78601074 27.00939941 C58.78077582 30.74586127 58.76681457 34.48230678 58.75390625 38.21875 C58.73328125 46.571875 58.71265625 54.925 58.69140625 63.53125 C31.30140625 63.53125 3.91140625 63.53125 -24.30859375 63.53125 C-24.39109375 55.095625 -24.47359375 46.66 -24.55859375 37.96875 C-24.59500977 35.3177124 -24.63142578 32.6666748 -24.66894531 29.93530273 C-24.68063425 27.82015797 -24.69082559 25.70500416 -24.69921875 23.58984375 C-24.71968262 22.50288208 -24.74014648 21.41592041 -24.76123047 20.29602051 C-24.76419758 13.82103548 -24.43206489 9.65137964 -20.30859375 4.53125 C-14.13760727 -0.55298617 -7.73419223 -0.05094099 0 0 Z " fill="#85C10D" transform="translate(24.30859375,445.46875)"/>
<path d="M0 0 C0.87577664 -0.00709439 1.75155329 -0.01418877 2.65386862 -0.02149814 C5.5705173 -0.03901433 8.48582206 -0.02100605 11.40245056 -0.00291443 C13.50062667 -0.00805564 15.59879847 -0.01533843 17.69696045 -0.02459717 C23.38288889 -0.04309232 29.06834767 -0.03018463 34.75425649 -0.01050687 C40.70872485 0.00589415 46.66316381 -0.0029352 52.61764526 -0.00802612 C62.61532584 -0.01254508 72.6128192 0.00331155 82.61045837 0.03126526 C94.16560388 0.06332488 105.72041192 0.06329729 117.27558142 0.04605049 C128.39750335 0.03018253 139.51930166 0.03692018 150.64121819 0.0539875 C155.37194043 0.06085624 160.10256354 0.05982734 164.83328438 0.05244255 C170.40416749 0.04477698 175.97466685 0.05691518 181.54548454 0.08429146 C183.58887467 0.09117311 185.63230066 0.09127564 187.6756897 0.08407593 C190.46708153 0.07537455 193.2572909 0.09134896 196.04858398 0.11352539 C196.85540007 0.10528462 197.66221616 0.09704386 198.49348122 0.08855337 C204.08716153 0.17046364 207.35928551 1.40527172 211.96080017 4.62818909 C216.11382991 9.61296692 216.49207818 14.25316135 216.21080017 20.56568909 C216.1927533 21.34492737 216.17470642 22.12416565 216.15611267 22.92701721 C216.109464 24.8279504 216.03773846 26.72824078 215.96080017 28.62818909 C214.30982944 26.4362223 212.68097682 24.2364364 211.08580017 22.00318909 C207.75078044 18.27581409 205.00453467 17.6958595 200.03582096 17.37371349 C198.4617933 17.3614443 196.88765698 17.36014943 195.31359863 17.36749268 C194.44376325 17.36366713 193.57392787 17.35984158 192.67773384 17.35590011 C189.76364561 17.34558296 186.84975489 17.34955983 183.93565369 17.35353088 C181.84615395 17.34918372 179.7566558 17.34400055 177.66716003 17.33804321 C171.99159648 17.32464289 166.31609948 17.32407567 160.6405232 17.32660651 C155.90379675 17.32767547 151.16708381 17.32279482 146.43036026 17.31800109 C135.25682151 17.30690245 124.08331638 17.3064706 112.90977478 17.31251526 C101.37915448 17.31855712 89.84865614 17.3062394 78.31805664 17.28494519 C68.42069614 17.26733861 58.5233745 17.26132632 48.62599891 17.26458293 C42.71366081 17.26639735 36.80140971 17.26374375 30.88908577 17.24986839 C25.32982166 17.23730998 19.77074794 17.23921541 14.21148682 17.25227928 C12.17089207 17.25464889 10.130284 17.25189666 8.08970451 17.24365616 C5.30457622 17.23321969 2.5200904 17.24126451 -0.26501465 17.25396729 C-1.07289899 17.246593 -1.88078333 17.23921872 -2.71314901 17.23162097 C-7.55091143 17.27805455 -10.83845485 17.97579326 -15.03919983 20.62818909 C-17.28770466 23.10480407 -17.28770466 23.10480407 -19.03919983 25.62818909 C-19.69919983 26.28818909 -20.35919983 26.94818909 -21.03919983 27.62818909 C-21.80459572 11.10839437 -21.80459572 11.10839437 -17.03919983 5.62818909 C-11.52745543 1.18150204 -6.98304135 -0.10272295 0 0 Z " fill="#9BCD21" transform="translate(296.03919982910156,445.37181091308594)"/>
<path d="M0 0 C43.56 0 87.12 0 132 0 C132 7.92 132 15.84 132 24 C88.44 24 44.88 24 0 24 C0 16.08 0 8.16 0 0 Z " fill="#C87422" transform="translate(283,292)"/>
<path d="M0 0 C4.97913351 2.75967661 8.47471429 5.71207144 11.625 10.4375 C12.223125 11.324375 12.82125 12.21125 13.4375 13.125 C16.70518278 19.48838226 16.68458759 27.45718392 14.87109375 34.26953125 C11.03202119 44.31134065 5.06612195 48.71693903 -4.375 53.4375 C-13.67351321 54.18998084 -21.77722797 54.58325338 -29.375 48.4375 C-35.51973272 43.11206497 -39.94235734 36.87968927 -40.59765625 28.63671875 C-40.77676619 22.38344576 -40.43833329 17.90773801 -37.375 12.4375 C-36.818125 11.426875 -36.26125 10.41625 -35.6875 9.375 C-26.75375856 -1.97326615 -13.30394039 -6.18096113 0 0 Z " fill="#423740" transform="translate(268.375,158.5625)"/>
<path d="M0 0 C0 26.4 0 52.8 0 80 C-9.66213647 71.71816874 -18.9309254 63.21270531 -27.8203125 54.1171875 C-29.81434962 51.96682654 -29.81434962 51.96682654 -32 51 C-32.09913284 45.27088428 -32.1715934 39.54227161 -32.21972656 33.8125 C-32.23979906 31.86482034 -32.26706332 29.91720063 -32.30175781 27.96972656 C-32.35046852 25.16456279 -32.37301241 22.36019813 -32.390625 19.5546875 C-32.41127014 18.68883026 -32.43191528 17.82297302 -32.45318604 16.93087769 C-32.45520053 11.46064547 -31.76715861 8.25155229 -28 4 C-22 0 -22 0 0 0 Z " fill="#879BA0" transform="translate(388,48)"/>
<path d="M0 0 C1.28068863 -0.0038269 2.56137726 -0.00765381 3.88087463 -0.01159668 C6.58329721 -0.01747041 9.2851884 -0.00900034 11.98754883 0.00976562 C15.43183277 0.03253237 18.87486808 0.01943514 22.3191061 -0.00452423 C25.62950092 -0.02255281 28.93956984 -0.00988472 32.25 0 C33.47730331 -0.00809692 34.70460663 -0.01619385 35.96910095 -0.02453613 C43.01214934 0.0521489 47.72250144 0.69833936 53.69140625 4.53125 C58.44283316 9.52633983 58.83462734 13.56857385 58.75390625 20.21875 C58.74939453 20.92064453 58.74488281 21.62253906 58.74023438 22.34570312 C58.72847552 24.07425538 58.71054079 25.80276365 58.69140625 27.53125 C58.08425781 26.75265625 57.47710937 25.9740625 56.8515625 25.171875 C53.89387221 21.55632592 51.15002328 19.01745568 46.69140625 17.53125 C44.77584476 17.42274685 42.85677866 17.37238842 40.93823242 17.35424805 C39.75658005 17.34141281 38.57492767 17.32857758 37.35746765 17.31535339 C36.07934708 17.30796646 34.8012265 17.30057953 33.484375 17.29296875 C32.17108719 17.284897 30.85779938 17.27682526 29.50471497 17.26850891 C26.72311533 17.2534955 23.94154111 17.24365107 21.15991211 17.23608398 C17.6056064 17.22502655 14.05192795 17.19062928 10.49784374 17.15091228 C7.09754636 17.1184034 3.69731576 17.11396397 0.296875 17.10546875 C-0.97517288 17.08796066 -2.24722076 17.07045258 -3.55781555 17.05241394 C-12.25288906 17.02239533 -12.25288906 17.02239533 -19.30859375 21.53125 C-20.81377498 23.59201774 -20.81377498 23.59201774 -21.68359375 25.78125 C-22.00070313 26.48765625 -22.3178125 27.1940625 -22.64453125 27.921875 C-22.86367188 28.45296875 -23.0828125 28.9840625 -23.30859375 29.53125 C-23.63859375 29.53125 -23.96859375 29.53125 -24.30859375 29.53125 C-24.41736357 26.67604219 -24.49625841 23.82504439 -24.55859375 20.96875 C-24.59210937 20.16888672 -24.625625 19.36902344 -24.66015625 18.54492188 C-24.75633452 12.6540031 -23.92675825 9.2523711 -20.30859375 4.53125 C-13.9236274 -0.36984331 -7.83536022 -0.05160733 0 0 Z " fill="#9BCD21" transform="translate(24.30859375,445.46875)"/>
<path d="M0 0 C1.70446289 -0.01643555 1.70446289 -0.01643555 3.44335938 -0.03320312 C11.76856518 0.04047126 11.76856518 0.04047126 14.76538086 2.37915039 C17.18136582 5.53379391 16.92128994 7.69218046 16.4375 11.5625 C14.67734869 14.7475357 13.93859084 15.39546972 10.4375 16.5625 C6.98313256 16.79173808 3.52369183 16.74766136 0.0625 16.75 C-0.88367188 16.76224609 -1.82984375 16.77449219 -2.8046875 16.78710938 C-11.82067583 16.80610373 -11.82067583 16.80610373 -15.5625 14.5625 C-17.90799674 11.04425489 -18.14241403 9.70474306 -17.5625 5.5625 C-13.22340489 -1.06288962 -7.3459286 -0.15469514 0 0 Z " fill="#8F490E" transform="translate(202.5625,387.4375)"/>
</svg>
