<?xml version="1.0" encoding="UTF-8"?>
<svg version="1.1" xmlns="http://www.w3.org/2000/svg" width="512" height="512">
<path d="M0 0 C1.13308594 -0.00064453 2.26617187 -0.00128906 3.43359375 -0.00195312 C4.61308594 0.01802734 5.79257812 0.03800781 7.0078125 0.05859375 C8.17957031 0.05150391 9.35132813 0.04441406 10.55859375 0.03710938 C21.1238733 0.11505979 21.1238733 0.11505979 26.1328125 3.49609375 C26.9990625 4.07359375 27.8653125 4.65109375 28.7578125 5.24609375 C31.1328125 7.49609375 31.1328125 7.49609375 32.4375 11.09375 C33.40068946 13.05646551 33.40068946 13.05646551 35.1328125 14.49609375 C39.62032472 15.45899487 44.06076742 15.2908628 48.6328125 15.18359375 C51.08054517 15.14913662 53.52858767 15.13148352 55.9765625 15.1328125 C57.06130859 15.10920654 58.14605469 15.08560059 59.26367188 15.0612793 C62.1328125 15.49609375 62.1328125 15.49609375 64.484375 16.94482422 C66.95328478 20.76593015 66.70604405 24.21813007 66.6640625 28.6796875 C66.6678894 29.57220718 66.67171631 30.46472687 66.67565918 31.3842926 C66.67837796 33.26963429 66.67101909 35.15501372 66.65429688 37.0402832 C66.63291126 39.92029353 66.65408591 42.7978022 66.6796875 45.67773438 C66.67704372 47.51172424 66.67191771 49.34571255 66.6640625 51.1796875 C66.67215942 52.03815781 66.68025635 52.89662811 66.68859863 53.78111267 C66.62714172 57.71732465 66.38613176 60.03320903 64.46630859 63.54125977 C61.53762633 65.99469761 60.05513639 66.11592517 56.265625 66.08984375 C55.13253906 66.08726563 53.99945313 66.0846875 52.83203125 66.08203125 C51.65253906 66.05367188 50.47304688 66.0253125 49.2578125 65.99609375 C47.50017578 65.99996094 47.50017578 65.99996094 45.70703125 66.00390625 C35.16471764 65.88424321 35.16471764 65.88424321 30.1328125 62.49609375 C29.2665625 61.91859375 28.4003125 61.34109375 27.5078125 60.74609375 C25.1328125 58.49609375 25.1328125 58.49609375 23.7578125 54.80859375 C22.93222933 52.86604453 22.93222933 52.86604453 21.1328125 51.49609375 C16.11499618 50.55593644 11.22742906 50.45173764 6.1328125 50.49609375 C4.24376066 66.26203361 4.24376066 66.26203361 8.73876953 80.80664062 C13.06697135 84.65532407 18.22656444 86.95151665 23.48974609 89.26708984 C27.69026153 91.2202946 31.4593934 93.76500733 35.3203125 96.30859375 C36.89481033 97.30835865 38.47170021 98.30436488 40.05078125 99.296875 C41.2735376 100.06765381 41.2735376 100.06765381 42.52099609 100.85400391 C47.38492982 103.91203515 52.25924818 106.95344341 57.1328125 109.99609375 C67.48799064 116.46181008 77.82591023 122.9536772 88.1328125 129.49609375 C89.19024658 130.16608398 89.19024658 130.16608398 90.26904297 130.84960938 C92.24640792 132.10375205 94.22132699 133.36164047 96.1953125 134.62109375 C97.85240234 135.67683594 97.85240234 135.67683594 99.54296875 136.75390625 C102.1328125 138.49609375 102.1328125 138.49609375 104.1328125 140.49609375 C104.1328125 149.40609375 104.1328125 158.31609375 104.1328125 167.49609375 C138.7828125 167.49609375 173.4328125 167.49609375 209.1328125 167.49609375 C209.1328125 158.58609375 209.1328125 149.67609375 209.1328125 140.49609375 C212.52495629 137.10394996 213.73703702 137.13574138 218.34191895 137.07925415 C219.5841925 137.08836319 219.5841925 137.08836319 220.8515625 137.09765625 C221.70584839 137.09478607 222.56013428 137.09191589 223.44030762 137.08895874 C225.24585635 137.08691794 227.05142719 137.09244892 228.85693359 137.10498047 C231.62257262 137.12103431 234.38675025 137.10513276 237.15234375 137.0859375 C238.90625323 137.08791993 240.6601618 137.0917636 242.4140625 137.09765625 C243.24224487 137.09158356 244.07042725 137.08551086 244.92370605 137.07925415 C250.61031408 137.14901071 250.61031408 137.14901071 252.85128272 138.63763189 C254.70546601 141.32655022 254.50892 143.3690437 254.51033592 146.61966705 C254.51815916 147.90916307 254.52598241 149.19865909 254.53404272 150.52723074 C254.5275559 151.96660072 254.5207859 153.40596945 254.51376343 154.84533691 C254.51721788 156.36784276 254.521981 157.8903461 254.52794516 159.41284418 C254.54051415 163.60752262 254.53425813 167.80199734 254.52498651 171.99667668 C254.51822039 176.51616528 254.52866509 181.03561795 254.53692627 185.55509949 C254.55029193 194.41308085 254.54737328 203.27098611 254.53868835 212.1289705 C254.53192333 219.32567685 254.53098995 226.52236182 254.5342598 233.71907043 C254.5347195 234.74190609 254.53517919 235.76474175 254.53565282 236.81857243 C254.53661196 238.89620364 254.5375846 240.97383485 254.5385706 243.05146605 C254.54713279 262.55031085 254.53727737 282.0491134 254.5211695 301.54795128 C254.50776557 318.2922426 254.51009343 335.03647153 254.52392578 351.78076172 C254.53996696 371.20807788 254.54630874 390.63535696 254.53708899 410.06267881 C254.53613331 412.13282489 254.53519019 414.20297098 254.5342598 416.27311707 C254.53379697 417.29176665 254.53333414 418.31041624 254.53285729 419.359934 C254.53026301 426.5510663 254.53464781 433.74217516 254.54169846 440.93330383 C254.55009744 449.69249327 254.54786716 458.45160202 254.53185622 467.21078217 C254.52395185 471.68300833 254.52091859 476.15509978 254.53080368 480.62732506 C254.5397065 484.71689163 254.53489119 488.80619792 254.51887102 492.89574069 C254.51550439 494.37954121 254.5172592 495.86336347 254.52449839 497.34715015 C254.53354984 499.35559207 254.52252084 501.36409509 254.51033592 503.37252045 C254.50984887 504.49068948 254.50936181 505.60885852 254.50885999 506.76091146 C254.1328125 509.49609375 254.1328125 509.49609375 253.12566435 511.35522187 C249.8911805 513.20690576 246.49618212 512.90533444 242.86965942 512.87361717 C241.58433968 512.88015766 241.58433968 512.88015766 240.27305388 512.88683027 C237.37605184 512.89785646 234.47951881 512.88733037 231.58251953 512.87704468 C229.49491696 512.88049833 227.40731622 512.88526092 225.31971931 512.89122641 C219.56304368 512.90380623 213.8065163 512.89753441 208.04983997 512.88826776 C201.84935794 512.88150607 195.64890218 512.89194413 189.44842529 512.90020752 C177.99703481 512.91280431 166.54571078 512.91167355 155.0943206 512.90347311 C144.51650892 512.89593518 133.93871468 512.89395226 123.36090088 512.89754105 C122.660051 512.8977702 121.95920112 512.89799936 121.23711337 512.89823546 C118.39234569 512.89916943 115.54757802 512.90012462 112.70281035 512.90111475 C86.00067322 512.91029782 59.29856637 512.90196174 32.59643391 512.88582406 C8.85789283 512.87158657 -14.88059997 512.87286042 -38.61914062 512.88720703 C-65.27152053 512.90326069 -91.92387364 512.90964664 -118.57625771 512.90037024 C-121.41593042 512.89940805 -124.25560315 512.89846953 -127.09527588 512.89754105 C-127.79450825 512.89730381 -128.49374063 512.89706658 -129.21416186 512.89682216 C-139.78696729 512.89340551 -150.3597534 512.89740844 -160.93255615 512.90497971 C-172.95077377 512.91354298 -184.96892189 512.91115417 -196.98713732 512.89513747 C-203.12412028 512.88722945 -209.26100503 512.88420608 -215.39798737 512.89408493 C-221.00857594 512.90298013 -226.61897465 512.89818498 -232.22954583 512.88215227 C-234.26650626 512.8787824 -236.30348251 512.88054752 -238.34043288 512.88777964 C-241.09519944 512.89681513 -243.84930334 512.88763491 -246.60403442 512.87361717 C-247.40709463 512.88064067 -248.21015484 512.88766417 -249.03755021 512.8949005 C-251.96649083 512.86481913 -254.282139 512.83102351 -256.86003935 511.35522187 C-258.33194507 508.63818235 -258.24336725 506.45726667 -258.24471092 503.37252045 C-258.25253416 502.08302443 -258.26035741 500.79352841 -258.26841772 499.46495676 C-258.2619309 498.02558678 -258.2551609 496.58621805 -258.24813843 495.14685059 C-258.25159288 493.62434474 -258.256356 492.1018414 -258.26232016 490.57934332 C-258.27488915 486.38466488 -258.26863313 482.19019016 -258.25936151 477.99551082 C-258.25259539 473.47602222 -258.26304009 468.95656955 -258.27130127 464.43708801 C-258.28466693 455.57910665 -258.28174828 446.72120139 -258.27306335 437.863217 C-258.26629833 430.66651065 -258.26536495 423.46982568 -258.2686348 416.27311707 C-258.2690945 415.25028141 -258.26955419 414.22744575 -258.27002782 413.17361507 C-258.27098696 411.09598386 -258.2719596 409.01835265 -258.2729456 406.94072145 C-258.28150779 387.44187665 -258.27165237 367.9430741 -258.2555445 348.44423622 C-258.24214057 331.6999449 -258.24446843 314.95571597 -258.25830078 298.21142578 C-258.27434196 278.78410962 -258.28068374 259.35683054 -258.27146399 239.92950869 C-258.27050831 237.85936261 -258.26956519 235.78921652 -258.2686348 233.71907043 C-258.26817197 232.70042085 -258.26770914 231.68177126 -258.26723229 230.6322535 C-258.26463801 223.4411212 -258.26902281 216.25001234 -258.27607346 209.05888367 C-258.28447244 200.29969423 -258.28224216 191.54058548 -258.26623122 182.78140533 C-258.25832685 178.30917917 -258.25529359 173.83708772 -258.26517868 169.36486244 C-258.2740815 165.27529587 -258.26926619 161.18598958 -258.25324602 157.09644681 C-258.24987939 155.61264629 -258.2516342 154.12882403 -258.25887339 152.64503735 C-258.26792484 150.63659543 -258.25689584 148.62809241 -258.24471092 146.61966705 C-258.24422387 145.50149802 -258.24373681 144.38332898 -258.24323499 143.23127604 C-257.8671875 140.49609375 -257.8671875 140.49609375 -256.58565772 138.63763189 C-253.48672299 136.57908461 -249.74931418 137.07125262 -246.1484375 137.09765625 C-245.29415161 137.09478607 -244.43986572 137.09191589 -243.55969238 137.08895874 C-241.75414365 137.08691794 -239.94857281 137.09244892 -238.14306641 137.10498047 C-235.37742738 137.12103431 -232.61324975 137.10513276 -229.84765625 137.0859375 C-228.09374677 137.08791993 -226.3398382 137.0917636 -224.5859375 137.09765625 C-223.75775513 137.09158356 -222.92957275 137.08551086 -222.07629395 137.07925415 C-216.21209203 137.15118922 -216.21209203 137.15118922 -212.8671875 140.49609375 C-212.8671875 149.40609375 -212.8671875 158.31609375 -212.8671875 167.49609375 C-178.2171875 167.49609375 -143.5671875 167.49609375 -107.8671875 167.49609375 C-107.8671875 158.58609375 -107.8671875 149.67609375 -107.8671875 140.49609375 C-104.82249349 138.06033854 -102.13377044 135.92860497 -98.890625 133.90234375 C-97.77651245 133.20274536 -97.77651245 133.20274536 -96.63989258 132.48901367 C-95.8486499 131.9963501 -95.05740723 131.50368652 -94.2421875 130.99609375 C-92.52467774 129.91936947 -90.80723153 128.84254383 -89.08984375 127.765625 C-88.21730957 127.21986816 -87.34477539 126.67411133 -86.44580078 126.11181641 C-83.27947927 124.12784408 -80.12207782 122.13001869 -76.96533203 120.13085938 C-67.93254201 114.41131449 -58.86835664 108.74264571 -49.79931641 103.08081055 C-36.96413683 95.14563301 -36.96413683 95.14563301 -24.284729 86.96736145 C-21.8671875 85.49609375 -21.8671875 85.49609375 -19.07305908 84.28141785 C-15.74399067 82.66326142 -13.42815028 81.18611357 -10.8671875 78.49609375 C-9.29184719 72.91985285 -9.53902474 67.5165541 -9.71484375 61.765625 C-9.72308774 60.12613208 -9.72588578 58.48660358 -9.72349548 56.84709167 C-9.72914616 52.5449643 -9.79691068 48.24622416 -9.88146973 43.94500732 C-10.00753522 37.05209706 -10.04363953 30.15839262 -10.07055473 23.26450157 C-10.08959474 20.85957726 -10.13805604 18.45659595 -10.19068909 16.05220032 C-10.20735248 14.57883485 -10.22333471 13.10546147 -10.23852539 11.63208008 C-10.2628212 10.34747391 -10.287117 9.06286774 -10.31214905 7.73933411 C-9.8671875 4.49609375 -9.8671875 4.49609375 -8.01557922 2.08145142 C-5.20705429 0.0089632 -3.46988029 -0.00624177 0 0 Z " fill="#000000" transform="translate(257.8671875,-0.49609375)"/>
<path d="M0 0 C4.03461933 1.32438335 7.36890778 3.47690795 10.9453125 5.73828125 C11.73301025 6.22820557 12.52070801 6.71812988 13.33227539 7.22290039 C15.83362103 8.78219043 18.32756143 10.35279453 20.8203125 11.92578125 C22.3997041 12.91802523 23.97913058 13.91021369 25.55859375 14.90234375 C29.52092113 17.39621134 33.47601669 19.90133616 37.42919922 22.40966797 C41.38935797 24.92065284 45.3550601 27.42285091 49.3203125 29.92578125 C54.14225367 32.9700896 58.96332414 36.01574625 63.78125 39.06640625 C64.60431641 39.5871875 65.42738281 40.10796875 66.27539062 40.64453125 C67.81356335 41.61783829 69.35136642 42.59172995 70.88867188 43.56640625 C71.60603516 44.02015625 72.32339844 44.47390625 73.0625 44.94140625 C73.75419385 45.39415987 74.44588771 45.84691349 75.15854198 46.31338692 C77.86483314 48.01454974 77.86483314 48.01454974 81.07373255 49.46760368 C90.08246925 54.05920041 90.08246925 54.05920041 92.01616442 58.9510231 C92.46158973 62.71238249 92.49387722 66.36238095 92.38362122 70.13720703 C92.38929556 71.58369918 92.40068816 73.03017822 92.41728038 74.47658634 C92.44628162 78.43938504 92.394475 82.39759577 92.32916558 86.35980964 C92.27292829 90.63645918 92.29202979 94.91285819 92.30189514 99.18977356 C92.30870608 106.59547063 92.26798463 113.99967677 92.19480324 121.40499878 C92.0890674 132.11152785 92.05528657 142.81733734 92.03895935 153.52433193 C92.01051971 170.89602435 91.92404134 188.2669224 91.80102539 205.63818359 C91.68166455 222.51086456 91.58966207 239.38332963 91.53442383 256.25634766 C91.52930072 257.81688716 91.52930072 257.81688716 91.52407411 259.40895271 C91.5071084 264.62822715 91.49068025 269.84750311 91.47451937 275.06678009 C91.33979128 318.35366928 91.10988829 361.63967179 90.8203125 404.92578125 C85.8703125 404.92578125 80.9203125 404.92578125 75.8203125 404.92578125 C75.81884594 403.8729533 75.81737938 402.82012535 75.81586838 401.73539352 C75.77930283 376.13917807 75.71989201 350.54309377 75.63640976 324.94698715 C75.59656969 312.56898526 75.56420246 300.19104741 75.54931641 287.81298828 C75.53632563 277.02654927 75.50942695 266.24025087 75.46569943 255.45389104 C75.44302668 249.74050764 75.4274053 244.02729804 75.42842865 238.31386566 C75.42917183 232.93925154 75.41135904 227.56502244 75.37914467 222.19050789 C75.37060667 220.21521064 75.36892201 218.2398704 75.37450981 216.26456261 C75.38111268 213.57238469 75.36331902 210.88144522 75.33929443 208.18939209 C75.34705485 207.40339906 75.35481527 206.61740602 75.36281085 205.80759501 C75.30903361 202.41557874 75.06266629 200.28699198 73.1531868 197.44105148 C70.22077326 195.53636294 68.46308866 195.42291266 64.9753418 195.41784668 C63.7808139 195.40656738 62.58628601 195.39528809 61.3555603 195.38366699 C60.04842072 195.39176392 58.74128113 195.39986084 57.39453125 195.40820312 C56.00142688 195.40278187 54.60832825 195.39565919 53.21524048 195.38696289 C49.43419465 195.36872654 45.65358536 195.37579806 41.87253189 195.38847923 C37.91590446 195.39860541 33.95931444 195.38921462 30.00268555 195.38293457 C23.3581674 195.37565703 16.71382709 195.38524857 10.06933594 195.40429688 C2.38705157 195.42606595 -5.29480818 195.41901465 -12.97708225 195.39699125 C-19.57253689 195.3788402 -26.16786369 195.37627744 -32.76333523 195.38674593 C-36.70269672 195.39298254 -40.64185861 195.39381205 -44.58120728 195.38059998 C-48.28481551 195.36904623 -51.98787624 195.37705773 -55.69142532 195.400177 C-57.69925432 195.40799045 -59.70712962 195.39610411 -61.7149353 195.38366699 C-62.9094632 195.39494629 -64.10399109 195.40622559 -65.3347168 195.41784668 C-66.37299118 195.41935478 -67.41126556 195.42086288 -68.48100281 195.42241669 C-71.25175614 195.76156676 -71.25175614 195.76156676 -73.5125618 197.44105148 C-75.85475113 200.93191456 -75.73878516 204.12637813 -75.69866943 208.18939209 C-75.70992131 209.45021099 -75.70992131 209.45021099 -75.7214005 210.73650098 C-75.74172508 213.55733094 -75.73356572 216.37736075 -75.72558594 219.19824219 C-75.73431836 221.21851906 -75.74480297 223.23878901 -75.75691223 225.25904846 C-75.78483332 230.74836072 -75.78817556 236.23744798 -75.78719234 241.72682095 C-75.79031619 247.46175139 -75.81592338 253.19657971 -75.83917236 258.93145752 C-75.87977639 269.7934001 -75.90008344 280.65528259 -75.91314626 291.5172894 C-75.92900138 303.88237627 -75.96741074 316.24736064 -76.00773954 328.61238813 C-76.09019876 354.05015147 -76.14425325 379.48791204 -76.1796875 404.92578125 C-81.1296875 404.92578125 -86.0796875 404.92578125 -91.1796875 404.92578125 C-91.72760457 360.72133085 -92.15212746 316.51733009 -92.40525541 272.31014886 C-92.43527111 267.08705003 -92.46633496 261.86395793 -92.49804688 256.64086914 C-92.50749005 255.08118429 -92.50749005 255.08118429 -92.517124 253.48999066 C-92.62145939 236.66994026 -92.81062823 219.85186549 -93.03135461 203.0329858 C-93.2560747 185.76531727 -93.38915516 168.49868071 -93.43781137 151.22961003 C-93.47069031 140.57871198 -93.57435771 129.93339735 -93.76968271 119.28421939 C-93.89690797 111.97387977 -93.93481689 104.66641013 -93.90372056 97.35504477 C-93.88838977 93.13883525 -93.91122323 88.93234393 -94.0406189 84.71788216 C-94.75826635 60.15581045 -94.75826635 60.15581045 -88.80509567 53.11891484 C-83.08477313 48.30094099 -76.79796169 45.05611948 -69.94655037 42.1384927 C-66.44479621 40.6036796 -63.42887662 38.72188744 -60.25390625 36.6015625 C-59.34600342 36.03477783 -58.43810059 35.46799316 -57.50268555 34.8840332 C-47.16343402 28.42762796 -36.84429177 21.9404244 -26.54443359 15.42138672 C-23.9930238 13.80772407 -21.4400373 12.19657809 -18.88671875 10.5859375 C-17.58021362 9.76162231 -17.58021362 9.76162231 -16.24731445 8.9206543 C-14.57542831 7.8658892 -12.90339792 6.81135269 -11.23120117 5.75708008 C-10.48201416 5.28423584 -9.73282715 4.8113916 -8.9609375 4.32421875 C-8.30158203 3.90833496 -7.64222656 3.49245117 -6.96289062 3.06396484 C-2.05302538 -0.06990588 -2.05302538 -0.06990588 0 0 Z " fill="#F7B968" transform="translate(256.1796875,92.07421875)"/>
<path d="M0 0 C44.55 0 89.1 0 135 0 C135 64.35 135 128.7 135 195 C90.45 195 45.9 195 0 195 C0 130.65 0 66.3 0 0 Z " fill="#FE825C" transform="translate(362,242)"/>
<path d="M0 0 C44.55 0 89.1 0 135 0 C135 64.35 135 128.7 135 195 C90.45 195 45.9 195 0 195 C0 130.65 0 66.3 0 0 Z " fill="#FB9E62" transform="translate(15,242)"/>
<path d="M0 0 C17.82 0 35.64 0 54 0 C54.33 48.84 54.66 97.68 55 148 C58.278784 149.092928 60.76284411 149.15783872 64.21557617 149.20532227 C65.4966777 149.22526749 66.77777924 149.24521271 68.09770203 149.26576233 C69.49612304 149.2827454 70.89454531 149.29962425 72.29296875 149.31640625 C73.7235829 149.33698166 75.15419105 149.35797829 76.58479309 149.37937927 C80.34780006 149.43453933 84.11086135 149.48397529 87.8739624 149.53222656 C91.71485216 149.58248593 95.55566316 149.63814883 99.39648438 149.69335938 C106.93092472 149.80086675 114.46543116 149.90182869 122 150 C122 154.95 122 159.9 122 165 C81.74 165 41.48 165 0 165 C0 160.05 0 155.1 0 150 C2.33578125 149.93941406 4.6715625 149.87882813 7.078125 149.81640625 C9.34524601 149.75456297 11.61231973 149.69119764 13.87939453 149.62768555 C15.45259374 149.58442662 17.02583717 149.54274526 18.59912109 149.50268555 C20.86309115 149.44476338 23.12684051 149.38113286 25.390625 149.31640625 C26.44240936 149.29133751 26.44240936 149.29133751 27.51544189 149.26576233 C30.88791167 149.16390525 33.69917008 148.82520748 37 148 C37 144.37 37 140.74 37 137 C25.01744187 134.00436047 12.34567116 135.37411125 0 135 C0 90.45 0 45.9 0 0 Z " fill="#FEFEFE" transform="translate(195,302)"/>
<path d="M0 0 C17.49 0 34.98 0 53 0 C53 44.55 53 89.1 53 135 C35.51 135 18.02 135 0 135 C0 90.45 0 45.9 0 0 Z " fill="#C2EEFF" transform="translate(264,302)"/>
<path d="M0 0 C7.99854935 4.84760567 13.75807014 11.84785703 16.6953125 20.78125 C16.96849227 23.43942948 17.10712919 25.85550635 17.08349609 28.50488281 C17.08875305 29.24235748 17.09401001 29.97983215 17.09942627 30.73965454 C17.11253198 33.1547826 17.10392591 35.56924135 17.09375 37.984375 C17.09577259 39.67112351 17.09868557 41.35787117 17.10244751 43.0446167 C17.10685731 46.56824117 17.10048007 50.09163662 17.08642578 53.61523438 C17.06928184 58.13368436 17.07921621 62.65160176 17.09714317 67.1700325 C17.1079726 70.64784782 17.10453949 74.12553632 17.0967598 77.60335541 C17.09475818 79.26994642 17.09721574 80.93654894 17.10419846 82.60312653 C17.11180505 84.92746129 17.10022322 87.25092554 17.08349609 89.57519531 C17.08956879 90.2640683 17.09564148 90.95294128 17.10189819 91.66268921 C17.06387276 94.51020602 17.02142767 96.34125662 15.29605103 98.66912842 C12.14954709 100.85517872 10.02838523 100.9257121 6.22338867 100.97412109 C4.50601753 100.99821548 4.50601753 100.99821548 2.75395203 101.02279663 C-2.484408 101.06715947 -7.72268038 101.108751 -12.96118164 101.13134766 C-15.72681793 101.14468269 -18.49171558 101.17252554 -21.25708008 101.21337891 C-25.23777282 101.27218476 -29.21810645 101.29000882 -33.19921875 101.3046875 C-35.05411674 101.33869156 -35.05411674 101.33869156 -36.94648743 101.37338257 C-38.67804329 101.36910751 -38.67804329 101.36910751 -40.44458008 101.36474609 C-41.45780838 101.37283295 -42.47103668 101.3809198 -43.51496887 101.38925171 C-47.45928545 100.5296126 -48.90726802 98.9892054 -51.3046875 95.78125 C-51.93287659 92.47590637 -51.93287659 92.47590637 -51.93579102 88.67114258 C-51.94294632 87.97446472 -51.95010162 87.27778687 -51.95747375 86.55999756 C-51.97433334 84.26458421 -51.95496734 81.97113308 -51.93359375 79.67578125 C-51.93442318 78.07020405 -51.93688538 76.46462695 -51.94090271 74.85905457 C-51.94375943 71.49391104 -51.92908109 68.12943347 -51.90161133 64.7644043 C-51.86766553 60.47507359 -51.87350168 56.186944 -51.8922739 51.89755726 C-51.9029081 48.57981071 -51.89384604 45.26233755 -51.87888908 41.94461632 C-51.87374441 40.36476138 -51.87414341 38.78487742 -51.88043404 37.20502663 C-51.91326486 23.99648005 -50.06223867 14.79848743 -40.67578125 4.98046875 C-29.11473047 -5.7425487 -13.88761055 -7.34395676 0 0 Z " fill="#020201" transform="translate(231.3046875,171.21875)"/>
<path d="M0 0 C7.63151188 6.57536514 13.57965007 14.13057244 14.39915466 24.47096252 C14.40979446 25.73939499 14.42043427 27.00782745 14.43139648 28.31469727 C14.43972 29.01955261 14.44804352 29.72440796 14.45661926 30.45062256 C14.48057592 32.76401395 14.4894712 35.07712302 14.49609375 37.390625 C14.50506719 39.00675029 14.51418916 40.62287476 14.52345276 42.23899841 C14.53990355 45.61890681 14.54763639 48.99871656 14.55053711 52.37866211 C14.55593365 56.70546511 14.5936817 61.0313402 14.63928127 65.35788059 C14.66903863 68.6925139 14.67626028 72.02692263 14.67726326 75.36167717 C14.68146403 76.95688083 14.69389274 78.55208524 14.71478081 80.14715767 C14.74168575 82.37817898 14.73687635 84.60703325 14.72436523 86.83813477 C14.72943588 88.10577164 14.73450653 89.37340851 14.73973083 90.67945862 C13.94691261 94.97707381 12.61444892 96.43567633 9.125 99.01171875 C6.31077576 99.63990784 6.31077576 99.63990784 3.20483398 99.64282227 C1.45293007 99.66162193 1.45293007 99.66162193 -0.33436584 99.68080139 C-1.58656418 99.66754318 -2.83876251 99.65428497 -4.12890625 99.640625 C-6.06841408 99.64424294 -6.06841408 99.64424294 -8.04710388 99.64793396 C-10.77838727 99.65078652 -13.50884811 99.63614447 -16.23999023 99.60864258 C-19.73632586 99.57452453 -23.23119474 99.58059308 -26.72760105 99.59930515 C-30.06984823 99.6124275 -33.41166932 99.59415932 -36.75390625 99.578125 C-38.00812881 99.58308487 -39.26235138 99.58804474 -40.55458069 99.59315491 C-42.30175636 99.56940041 -42.30175636 99.56940041 -44.08422852 99.54516602 C-45.10839371 99.53896744 -46.1325589 99.53276886 -47.1877594 99.52638245 C-50.70106945 98.85350889 -51.8417396 97.94776253 -53.875 95.01171875 C-54.37620544 91.78193665 -54.37620544 91.78193665 -54.37670898 87.9074707 C-54.38211197 87.19957901 -54.38751495 86.49168732 -54.39308167 85.76234436 C-54.40557674 83.42446925 -54.38906587 81.08782462 -54.37109375 78.75 C-54.37124881 77.11817867 -54.37273891 75.48635696 -54.37550354 73.85453796 C-54.37688817 70.43223815 -54.36432601 67.01035705 -54.34155273 63.58813477 C-54.31328017 59.2214924 -54.3158738 54.85555156 -54.32864285 50.48885822 C-54.33563409 47.11628842 -54.3277698 43.74387782 -54.31538582 40.37132835 C-54.31089672 38.76273397 -54.31051209 37.15412233 -54.31445122 35.5455265 C-54.33023305 23.42106381 -53.58107704 13.28515811 -44.875 4.01171875 C-32.0344081 -7.31670764 -14.74576719 -10.19781998 0 0 Z " fill="#020201" transform="translate(317.875,172.98828125)"/>
<path d="M0 0 C44.55 0 89.1 0 135 0 C135 14.85 135 29.7 135 45 C90.45 45 45.9 45 0 45 C0 30.15 0 15.3 0 0 Z " fill="#CFCCCC" transform="translate(362,452)"/>
<path d="M0 0 C44.55 0 89.1 0 135 0 C135 14.85 135 29.7 135 45 C90.45 45 45.9 45 0 45 C0 30.15 0 15.3 0 0 Z " fill="#E7E6E6" transform="translate(15,452)"/>
<path d="M0 0 C44.55 0 89.1 0 135 0 C135 14.85 135 29.7 135 45 C90.45 45 45.9 45 0 45 C0 30.15 0 15.3 0 0 Z " fill="#615E5D" transform="translate(362,182)"/>
<path d="M0 0 C44.55 0 89.1 0 135 0 C135 14.85 135 29.7 135 45 C90.45 45 45.9 45 0 45 C0 30.15 0 15.3 0 0 Z " fill="#615E5D" transform="translate(15,182)"/>
<path d="M0 0 C8.13373465 4.16348836 15.72227621 8.97992756 23.359375 13.9765625 C28.29118683 17.20153489 33.26615574 20.35621107 38.25 23.5 C39.04792969 24.00418457 39.84585938 24.50836914 40.66796875 25.02783203 C45.02388482 27.80918204 45.02388482 27.80918204 49.58917207 30.21549827 C52 32 52 32 52.62099248 34.6103937 C52.61909388 35.6694337 52.61719528 36.72847371 52.61523914 37.81960583 C52.62519439 39.04128403 52.63514963 40.26296223 52.64540654 41.52166098 C52.63114041 42.88449645 52.6164124 44.24732715 52.60127258 45.6101532 C52.60345176 47.0523025 52.60782744 48.49444989 52.61421841 49.93658668 C52.62543196 53.90920979 52.60535391 57.88116263 52.58032811 61.85370028 C52.55878961 66.13385135 52.56603883 70.41396284 52.56983948 74.69415283 C52.57246467 82.11304917 52.55674159 89.5317261 52.52865028 96.95056725 C52.48806121 107.67700425 52.47499778 118.40333487 52.46871033 129.12984035 C52.45775991 146.53168878 52.42446549 163.9334202 52.37719727 181.33520508 C52.33132098 198.24210015 52.29591963 215.14896348 52.2746582 232.0559082 C52.27334459 233.09758149 52.27203097 234.13925478 52.27067754 235.21249392 C52.26415248 240.43812268 52.25783391 245.66375167 52.25161803 250.88938081 C52.19976177 294.25966905 52.11130521 337.62982666 52 381 C47.05 381 42.1 381 37 381 C36.99853344 379.94717205 36.99706688 378.8943441 36.99555588 377.80961227 C36.95899033 352.21339682 36.89957951 326.61731252 36.81609726 301.0212059 C36.77625719 288.64320401 36.74388996 276.26526616 36.72900391 263.88720703 C36.71601313 253.10076802 36.68911445 242.31446962 36.64538693 231.52810979 C36.62271418 225.81472639 36.6070928 220.10151679 36.60811615 214.38808441 C36.60885933 209.01347029 36.59104654 203.63924119 36.55883217 198.26472664 C36.55029417 196.28942939 36.54860951 194.31408915 36.55419731 192.33878136 C36.56080018 189.64660344 36.54300652 186.95566397 36.51898193 184.26361084 C36.52674235 183.47761781 36.53450277 182.69162477 36.54249835 181.88181376 C36.48628622 178.33621619 36.30052905 176.38663988 34.09256363 173.54602432 C32.08809996 171.97246575 32.08809996 171.97246575 30 171 C29.86498106 168.56065775 29.76596103 166.12875896 29.6875 163.6875 C29.64560547 162.99720703 29.60371094 162.30691406 29.56054688 161.59570312 C29.51171875 159.57421875 29.51171875 159.57421875 30 156 C32.45703125 154.14453125 32.45703125 154.14453125 35 153 C36.46023414 150.07953172 36.151564 147.49214752 36.17700195 144.23046875 C36.18357315 143.53422897 36.19014435 142.8379892 36.19691467 142.12065125 C36.21666847 139.80959972 36.22831987 137.49861352 36.23828125 135.1875 C36.24235678 134.3964386 36.2464323 133.6053772 36.25063133 132.79034424 C36.27150907 128.59672303 36.28579877 124.40313462 36.29516602 120.20947266 C36.30618485 115.89666098 36.34052662 111.58437178 36.38033772 107.27174377 C36.40661854 103.94121408 36.41486835 100.61080613 36.41844749 97.28018188 C36.42329037 95.69190983 36.4348381 94.10364238 36.45348549 92.51547241 C36.56804249 82.1047916 35.99804419 73.5969141 29.75463867 64.85668945 C27.52777064 61.23117354 27.63357621 58.38507354 27.92578125 54.29296875 C27.98125209 52.80408921 28.03524201 51.31515389 28.08789062 49.82617188 C28.19297811 47.50763339 28.31221398 45.19200642 28.45922852 42.87573242 C29.2111493 33.56799361 29.2111493 33.56799361 26.11035156 25.04125977 C23.85347287 22.77215054 21.58416477 20.88066918 19 19 C17.6988004 17.86500379 16.4053133 16.72100535 15.125 15.5625 C14.48820312 15.01335937 13.85140625 14.46421875 13.1953125 13.8984375 C10.4425923 11.51797128 7.71342129 9.11252784 5 6.6875 C4.05125 5.84574219 3.1025 5.00398438 2.125 4.13671875 C0 2 0 2 0 0 Z " fill="#FB9E62" transform="translate(295,116)"/>
<path d="M0 0 C0.75792847 -0.00478363 1.51585693 -0.00956726 2.29675293 -0.01449585 C3.89365727 -0.01788696 5.49063178 -0.0087395 7.08740234 0.01220703 C9.52469402 0.03899046 11.95738192 0.01243943 14.39453125 -0.01953125 C15.95053095 -0.016227 17.50652779 -0.00982045 19.0625 0 C19.78659058 -0.01012115 20.51068115 -0.02024231 21.25671387 -0.03067017 C24.95569439 0.05453596 26.7997653 0.48022676 29.72213745 2.80105591 C32.48229895 6.22330597 32.66291367 7.77603833 32.67822266 12.11914062 C32.70186386 14.04638977 32.70186386 14.04638977 32.72598267 16.01257324 C32.71703259 17.40682842 32.70677752 18.80107574 32.6953125 20.1953125 C32.69868331 21.6335084 32.70353814 23.07170151 32.70980835 24.5098877 C32.71716743 27.51940112 32.7065069 30.52817091 32.68310547 33.53759766 C32.65461634 37.3882084 32.67102577 41.23707673 32.70096779 45.0876236 C32.71906802 48.05606122 32.71327068 51.02408821 32.70032883 53.99253845 C32.69700225 55.41186227 32.70105564 56.83122381 32.71272659 58.25050354 C32.72547622 60.2366562 32.70258509 62.22294022 32.67822266 64.20898438 C32.67424469 65.33751831 32.67026672 66.46605225 32.66616821 67.62878418 C31.82704892 71.64026242 30.20205434 73.14593861 27.03125 75.6640625 C24.17023479 76.164174 21.9151015 76.36799794 19.0625 76.328125 C18.30457153 76.33290863 17.54664307 76.33769226 16.76574707 76.34262085 C15.16884273 76.34601196 13.57186822 76.3368645 11.97509766 76.31591797 C9.53780598 76.28913454 7.10511808 76.31568557 4.66796875 76.34765625 C3.11196905 76.344352 1.55597221 76.33794545 0 76.328125 C-0.72409058 76.33824615 -1.44818115 76.34836731 -2.19421387 76.35879517 C-5.89319439 76.27358904 -7.7372653 75.84789824 -10.65963745 73.52706909 C-13.41979895 70.10481903 -13.60041367 68.55208667 -13.61572266 64.20898438 C-13.63148346 62.92415161 -13.64724426 61.63931885 -13.66348267 60.31555176 C-13.65453259 58.92129658 -13.64427752 57.52704926 -13.6328125 56.1328125 C-13.63618331 54.6946166 -13.64103814 53.25642349 -13.64730835 51.8182373 C-13.65466743 48.80872388 -13.6440069 45.79995409 -13.62060547 42.79052734 C-13.59211634 38.9399166 -13.60852577 35.09104827 -13.63846779 31.2405014 C-13.65656802 28.27206378 -13.65077068 25.30403679 -13.63782883 22.33558655 C-13.63450225 20.91626273 -13.63855564 19.49690119 -13.65022659 18.07762146 C-13.66297622 16.0914688 -13.64008509 14.10518478 -13.61572266 12.11914062 C-13.61174469 10.99060669 -13.60776672 9.86207275 -13.60366821 8.69934082 C-12.05607532 1.30094672 -6.75188833 -0.09437619 0 0 Z " fill="#000000" transform="translate(449.96875,346.3359375)"/>
<path d="M0 0 C0.75792847 -0.00478363 1.51585693 -0.00956726 2.29675293 -0.01449585 C3.89365727 -0.01788696 5.49063178 -0.0087395 7.08740234 0.01220703 C9.52469402 0.03899046 11.95738192 0.01243943 14.39453125 -0.01953125 C15.95053095 -0.016227 17.50652779 -0.00982045 19.0625 0 C19.78659058 -0.01012115 20.51068115 -0.02024231 21.25671387 -0.03067017 C24.95569439 0.05453596 26.7997653 0.48022676 29.72213745 2.80105591 C32.48229895 6.22330597 32.66291367 7.77603833 32.67822266 12.11914062 C32.70186386 14.04638977 32.70186386 14.04638977 32.72598267 16.01257324 C32.71703259 17.40682842 32.70677752 18.80107574 32.6953125 20.1953125 C32.69868331 21.6335084 32.70353814 23.07170151 32.70980835 24.5098877 C32.71716743 27.51940112 32.7065069 30.52817091 32.68310547 33.53759766 C32.65461634 37.3882084 32.67102577 41.23707673 32.70096779 45.0876236 C32.71906802 48.05606122 32.71327068 51.02408821 32.70032883 53.99253845 C32.69700225 55.41186227 32.70105564 56.83122381 32.71272659 58.25050354 C32.72547622 60.2366562 32.70258509 62.22294022 32.67822266 64.20898438 C32.67424469 65.33751831 32.67026672 66.46605225 32.66616821 67.62878418 C31.82704892 71.64026242 30.20205434 73.14593861 27.03125 75.6640625 C24.17023479 76.164174 21.9151015 76.36799794 19.0625 76.328125 C18.30457153 76.33290863 17.54664307 76.33769226 16.76574707 76.34262085 C15.16884273 76.34601196 13.57186822 76.3368645 11.97509766 76.31591797 C9.53780598 76.28913454 7.10511808 76.31568557 4.66796875 76.34765625 C3.11196905 76.344352 1.55597221 76.33794545 0 76.328125 C-0.72409058 76.33824615 -1.44818115 76.34836731 -2.19421387 76.35879517 C-5.89319439 76.27358904 -7.7372653 75.84789824 -10.65963745 73.52706909 C-13.41979895 70.10481903 -13.60041367 68.55208667 -13.61572266 64.20898438 C-13.63148346 62.92415161 -13.64724426 61.63931885 -13.66348267 60.31555176 C-13.65453259 58.92129658 -13.64427752 57.52704926 -13.6328125 56.1328125 C-13.63618331 54.6946166 -13.64103814 53.25642349 -13.64730835 51.8182373 C-13.65466743 48.80872388 -13.6440069 45.79995409 -13.62060547 42.79052734 C-13.59211634 38.9399166 -13.60852577 35.09104827 -13.63846779 31.2405014 C-13.65656802 28.27206378 -13.65077068 25.30403679 -13.63782883 22.33558655 C-13.63450225 20.91626273 -13.63855564 19.49690119 -13.65022659 18.07762146 C-13.66297622 16.0914688 -13.64008509 14.10518478 -13.61572266 12.11914062 C-13.61174469 10.99060669 -13.60776672 9.86207275 -13.60366821 8.69934082 C-12.05607532 1.30094672 -6.75188833 -0.09437619 0 0 Z " fill="#000000" transform="translate(389.96875,346.3359375)"/>
<path d="M0 0 C0.75792847 -0.00478363 1.51585693 -0.00956726 2.29675293 -0.01449585 C3.89365727 -0.01788696 5.49063178 -0.0087395 7.08740234 0.01220703 C9.52469402 0.03899046 11.95738192 0.01243943 14.39453125 -0.01953125 C15.95053095 -0.016227 17.50652779 -0.00982045 19.0625 0 C19.78659058 -0.01012115 20.51068115 -0.02024231 21.25671387 -0.03067017 C24.95569439 0.05453596 26.7997653 0.48022676 29.72213745 2.80105591 C32.48229895 6.22330597 32.66291367 7.77603833 32.67822266 12.11914062 C32.70186386 14.04638977 32.70186386 14.04638977 32.72598267 16.01257324 C32.71703259 17.40682842 32.70677752 18.80107574 32.6953125 20.1953125 C32.69868331 21.6335084 32.70353814 23.07170151 32.70980835 24.5098877 C32.71716743 27.51940112 32.7065069 30.52817091 32.68310547 33.53759766 C32.65461634 37.3882084 32.67102577 41.23707673 32.70096779 45.0876236 C32.71906802 48.05606122 32.71327068 51.02408821 32.70032883 53.99253845 C32.69700225 55.41186227 32.70105564 56.83122381 32.71272659 58.25050354 C32.72547622 60.2366562 32.70258509 62.22294022 32.67822266 64.20898438 C32.67424469 65.33751831 32.67026672 66.46605225 32.66616821 67.62878418 C31.82704892 71.64026242 30.20205434 73.14593861 27.03125 75.6640625 C24.17023479 76.164174 21.9151015 76.36799794 19.0625 76.328125 C18.30457153 76.33290863 17.54664307 76.33769226 16.76574707 76.34262085 C15.16884273 76.34601196 13.57186822 76.3368645 11.97509766 76.31591797 C9.53780598 76.28913454 7.10511808 76.31568557 4.66796875 76.34765625 C3.11196905 76.344352 1.55597221 76.33794545 0 76.328125 C-0.72409058 76.33824615 -1.44818115 76.34836731 -2.19421387 76.35879517 C-5.89319439 76.27358904 -7.7372653 75.84789824 -10.65963745 73.52706909 C-13.41979895 70.10481903 -13.60041367 68.55208667 -13.61572266 64.20898438 C-13.63148346 62.92415161 -13.64724426 61.63931885 -13.66348267 60.31555176 C-13.65453259 58.92129658 -13.64427752 57.52704926 -13.6328125 56.1328125 C-13.63618331 54.6946166 -13.64103814 53.25642349 -13.64730835 51.8182373 C-13.65466743 48.80872388 -13.6440069 45.79995409 -13.62060547 42.79052734 C-13.59211634 38.9399166 -13.60852577 35.09104827 -13.63846779 31.2405014 C-13.65656802 28.27206378 -13.65077068 25.30403679 -13.63782883 22.33558655 C-13.63450225 20.91626273 -13.63855564 19.49690119 -13.65022659 18.07762146 C-13.66297622 16.0914688 -13.64008509 14.10518478 -13.61572266 12.11914062 C-13.61174469 10.99060669 -13.60776672 9.86207275 -13.60366821 8.69934082 C-12.05607532 1.30094672 -6.75188833 -0.09437619 0 0 Z " fill="#000000" transform="translate(102.96875,346.3359375)"/>
<path d="M0 0 C0.75792847 -0.00478363 1.51585693 -0.00956726 2.29675293 -0.01449585 C3.89365727 -0.01788696 5.49063178 -0.0087395 7.08740234 0.01220703 C9.52469402 0.03899046 11.95738192 0.01243943 14.39453125 -0.01953125 C15.95053095 -0.016227 17.50652779 -0.00982045 19.0625 0 C19.78659058 -0.01012115 20.51068115 -0.02024231 21.25671387 -0.03067017 C24.95569439 0.05453596 26.7997653 0.48022676 29.72213745 2.80105591 C32.48229895 6.22330597 32.66291367 7.77603833 32.67822266 12.11914062 C32.70186386 14.04638977 32.70186386 14.04638977 32.72598267 16.01257324 C32.71703259 17.40682842 32.70677752 18.80107574 32.6953125 20.1953125 C32.69868331 21.6335084 32.70353814 23.07170151 32.70980835 24.5098877 C32.71716743 27.51940112 32.7065069 30.52817091 32.68310547 33.53759766 C32.65461634 37.3882084 32.67102577 41.23707673 32.70096779 45.0876236 C32.71906802 48.05606122 32.71327068 51.02408821 32.70032883 53.99253845 C32.69700225 55.41186227 32.70105564 56.83122381 32.71272659 58.25050354 C32.72547622 60.2366562 32.70258509 62.22294022 32.67822266 64.20898438 C32.67424469 65.33751831 32.67026672 66.46605225 32.66616821 67.62878418 C31.82704892 71.64026242 30.20205434 73.14593861 27.03125 75.6640625 C24.17023479 76.164174 21.9151015 76.36799794 19.0625 76.328125 C18.30457153 76.33290863 17.54664307 76.33769226 16.76574707 76.34262085 C15.16884273 76.34601196 13.57186822 76.3368645 11.97509766 76.31591797 C9.53780598 76.28913454 7.10511808 76.31568557 4.66796875 76.34765625 C3.11196905 76.344352 1.55597221 76.33794545 0 76.328125 C-0.72409058 76.33824615 -1.44818115 76.34836731 -2.19421387 76.35879517 C-5.89319439 76.27358904 -7.7372653 75.84789824 -10.65963745 73.52706909 C-13.41979895 70.10481903 -13.60041367 68.55208667 -13.61572266 64.20898438 C-13.63148346 62.92415161 -13.64724426 61.63931885 -13.66348267 60.31555176 C-13.65453259 58.92129658 -13.64427752 57.52704926 -13.6328125 56.1328125 C-13.63618331 54.6946166 -13.64103814 53.25642349 -13.64730835 51.8182373 C-13.65466743 48.80872388 -13.6440069 45.79995409 -13.62060547 42.79052734 C-13.59211634 38.9399166 -13.60852577 35.09104827 -13.63846779 31.2405014 C-13.65656802 28.27206378 -13.65077068 25.30403679 -13.63782883 22.33558655 C-13.63450225 20.91626273 -13.63855564 19.49690119 -13.65022659 18.07762146 C-13.66297622 16.0914688 -13.64008509 14.10518478 -13.61572266 12.11914062 C-13.61174469 10.99060669 -13.60776672 9.86207275 -13.60366821 8.69934082 C-12.05607532 1.30094672 -6.75188833 -0.09437619 0 0 Z " fill="#000000" transform="translate(42.96875,346.3359375)"/>
<path d="M0 0 C0.75792847 -0.00478363 1.51585693 -0.00956726 2.29675293 -0.01449585 C3.89365727 -0.01788696 5.49063178 -0.0087395 7.08740234 0.01220703 C9.52469402 0.03899046 11.95738192 0.01243943 14.39453125 -0.01953125 C15.95053095 -0.016227 17.50652779 -0.00982045 19.0625 0 C19.78659058 -0.01012115 20.51068115 -0.02024231 21.25671387 -0.03067017 C24.95569439 0.05453596 26.7997653 0.48022676 29.72213745 2.80105591 C32.48229895 6.22330597 32.66291367 7.77603833 32.67822266 12.11914062 C32.70186386 14.04638977 32.70186386 14.04638977 32.72598267 16.01257324 C32.71703259 17.40682842 32.70677752 18.80107574 32.6953125 20.1953125 C32.69868331 21.6335084 32.70353814 23.07170151 32.70980835 24.5098877 C32.71716743 27.51940112 32.7065069 30.52817091 32.68310547 33.53759766 C32.65461634 37.3882084 32.67102577 41.23707673 32.70096779 45.0876236 C32.71906802 48.05606122 32.71327068 51.02408821 32.70032883 53.99253845 C32.69700225 55.41186227 32.70105564 56.83122381 32.71272659 58.25050354 C32.72547622 60.2366562 32.70258509 62.22294022 32.67822266 64.20898438 C32.67424469 65.33751831 32.67026672 66.46605225 32.66616821 67.62878418 C31.82704892 71.64026242 30.20205434 73.14593861 27.03125 75.6640625 C24.17023479 76.164174 21.9151015 76.36799794 19.0625 76.328125 C18.30457153 76.33290863 17.54664307 76.33769226 16.76574707 76.34262085 C15.16884273 76.34601196 13.57186822 76.3368645 11.97509766 76.31591797 C9.53780598 76.28913454 7.10511808 76.31568557 4.66796875 76.34765625 C3.11196905 76.344352 1.55597221 76.33794545 0 76.328125 C-0.72409058 76.33824615 -1.44818115 76.34836731 -2.19421387 76.35879517 C-5.89319439 76.27358904 -7.7372653 75.84789824 -10.65963745 73.52706909 C-13.41979895 70.10481903 -13.60041367 68.55208667 -13.61572266 64.20898438 C-13.63148346 62.92415161 -13.64724426 61.63931885 -13.66348267 60.31555176 C-13.65453259 58.92129658 -13.64427752 57.52704926 -13.6328125 56.1328125 C-13.63618331 54.6946166 -13.64103814 53.25642349 -13.64730835 51.8182373 C-13.65466743 48.80872388 -13.6440069 45.79995409 -13.62060547 42.79052734 C-13.59211634 38.9399166 -13.60852577 35.09104827 -13.63846779 31.2405014 C-13.65656802 28.27206378 -13.65077068 25.30403679 -13.63782883 22.33558655 C-13.63450225 20.91626273 -13.63855564 19.49690119 -13.65022659 18.07762146 C-13.66297622 16.0914688 -13.64008509 14.10518478 -13.61572266 12.11914062 C-13.61174469 10.99060669 -13.60776672 9.86207275 -13.60366821 8.69934082 C-12.05607532 1.30094672 -6.75188833 -0.09437619 0 0 Z " fill="#000000" transform="translate(449.96875,256.3359375)"/>
<path d="M0 0 C0.75792847 -0.00478363 1.51585693 -0.00956726 2.29675293 -0.01449585 C3.89365727 -0.01788696 5.49063178 -0.0087395 7.08740234 0.01220703 C9.52469402 0.03899046 11.95738192 0.01243943 14.39453125 -0.01953125 C15.95053095 -0.016227 17.50652779 -0.00982045 19.0625 0 C19.78659058 -0.01012115 20.51068115 -0.02024231 21.25671387 -0.03067017 C24.95569439 0.05453596 26.7997653 0.48022676 29.72213745 2.80105591 C32.48229895 6.22330597 32.66291367 7.77603833 32.67822266 12.11914062 C32.70186386 14.04638977 32.70186386 14.04638977 32.72598267 16.01257324 C32.71703259 17.40682842 32.70677752 18.80107574 32.6953125 20.1953125 C32.69868331 21.6335084 32.70353814 23.07170151 32.70980835 24.5098877 C32.71716743 27.51940112 32.7065069 30.52817091 32.68310547 33.53759766 C32.65461634 37.3882084 32.67102577 41.23707673 32.70096779 45.0876236 C32.71906802 48.05606122 32.71327068 51.02408821 32.70032883 53.99253845 C32.69700225 55.41186227 32.70105564 56.83122381 32.71272659 58.25050354 C32.72547622 60.2366562 32.70258509 62.22294022 32.67822266 64.20898438 C32.67424469 65.33751831 32.67026672 66.46605225 32.66616821 67.62878418 C31.82704892 71.64026242 30.20205434 73.14593861 27.03125 75.6640625 C24.17023479 76.164174 21.9151015 76.36799794 19.0625 76.328125 C18.30457153 76.33290863 17.54664307 76.33769226 16.76574707 76.34262085 C15.16884273 76.34601196 13.57186822 76.3368645 11.97509766 76.31591797 C9.53780598 76.28913454 7.10511808 76.31568557 4.66796875 76.34765625 C3.11196905 76.344352 1.55597221 76.33794545 0 76.328125 C-0.72409058 76.33824615 -1.44818115 76.34836731 -2.19421387 76.35879517 C-5.89319439 76.27358904 -7.7372653 75.84789824 -10.65963745 73.52706909 C-13.41979895 70.10481903 -13.60041367 68.55208667 -13.61572266 64.20898438 C-13.63148346 62.92415161 -13.64724426 61.63931885 -13.66348267 60.31555176 C-13.65453259 58.92129658 -13.64427752 57.52704926 -13.6328125 56.1328125 C-13.63618331 54.6946166 -13.64103814 53.25642349 -13.64730835 51.8182373 C-13.65466743 48.80872388 -13.6440069 45.79995409 -13.62060547 42.79052734 C-13.59211634 38.9399166 -13.60852577 35.09104827 -13.63846779 31.2405014 C-13.65656802 28.27206378 -13.65077068 25.30403679 -13.63782883 22.33558655 C-13.63450225 20.91626273 -13.63855564 19.49690119 -13.65022659 18.07762146 C-13.66297622 16.0914688 -13.64008509 14.10518478 -13.61572266 12.11914062 C-13.61174469 10.99060669 -13.60776672 9.86207275 -13.60366821 8.69934082 C-12.05607532 1.30094672 -6.75188833 -0.09437619 0 0 Z " fill="#000000" transform="translate(389.96875,256.3359375)"/>
<path d="M0 0 C0.75792847 -0.00478363 1.51585693 -0.00956726 2.29675293 -0.01449585 C3.89365727 -0.01788696 5.49063178 -0.0087395 7.08740234 0.01220703 C9.52469402 0.03899046 11.95738192 0.01243943 14.39453125 -0.01953125 C15.95053095 -0.016227 17.50652779 -0.00982045 19.0625 0 C19.78659058 -0.01012115 20.51068115 -0.02024231 21.25671387 -0.03067017 C24.95569439 0.05453596 26.7997653 0.48022676 29.72213745 2.80105591 C32.48229895 6.22330597 32.66291367 7.77603833 32.67822266 12.11914062 C32.70186386 14.04638977 32.70186386 14.04638977 32.72598267 16.01257324 C32.71703259 17.40682842 32.70677752 18.80107574 32.6953125 20.1953125 C32.69868331 21.6335084 32.70353814 23.07170151 32.70980835 24.5098877 C32.71716743 27.51940112 32.7065069 30.52817091 32.68310547 33.53759766 C32.65461634 37.3882084 32.67102577 41.23707673 32.70096779 45.0876236 C32.71906802 48.05606122 32.71327068 51.02408821 32.70032883 53.99253845 C32.69700225 55.41186227 32.70105564 56.83122381 32.71272659 58.25050354 C32.72547622 60.2366562 32.70258509 62.22294022 32.67822266 64.20898438 C32.67424469 65.33751831 32.67026672 66.46605225 32.66616821 67.62878418 C31.82704892 71.64026242 30.20205434 73.14593861 27.03125 75.6640625 C24.17023479 76.164174 21.9151015 76.36799794 19.0625 76.328125 C18.30457153 76.33290863 17.54664307 76.33769226 16.76574707 76.34262085 C15.16884273 76.34601196 13.57186822 76.3368645 11.97509766 76.31591797 C9.53780598 76.28913454 7.10511808 76.31568557 4.66796875 76.34765625 C3.11196905 76.344352 1.55597221 76.33794545 0 76.328125 C-0.72409058 76.33824615 -1.44818115 76.34836731 -2.19421387 76.35879517 C-5.89319439 76.27358904 -7.7372653 75.84789824 -10.65963745 73.52706909 C-13.41979895 70.10481903 -13.60041367 68.55208667 -13.61572266 64.20898438 C-13.63148346 62.92415161 -13.64724426 61.63931885 -13.66348267 60.31555176 C-13.65453259 58.92129658 -13.64427752 57.52704926 -13.6328125 56.1328125 C-13.63618331 54.6946166 -13.64103814 53.25642349 -13.64730835 51.8182373 C-13.65466743 48.80872388 -13.6440069 45.79995409 -13.62060547 42.79052734 C-13.59211634 38.9399166 -13.60852577 35.09104827 -13.63846779 31.2405014 C-13.65656802 28.27206378 -13.65077068 25.30403679 -13.63782883 22.33558655 C-13.63450225 20.91626273 -13.63855564 19.49690119 -13.65022659 18.07762146 C-13.66297622 16.0914688 -13.64008509 14.10518478 -13.61572266 12.11914062 C-13.61174469 10.99060669 -13.60776672 9.86207275 -13.60366821 8.69934082 C-12.05607532 1.30094672 -6.75188833 -0.09437619 0 0 Z " fill="#000000" transform="translate(102.96875,256.3359375)"/>
<path d="M0 0 C0.75792847 -0.00478363 1.51585693 -0.00956726 2.29675293 -0.01449585 C3.89365727 -0.01788696 5.49063178 -0.0087395 7.08740234 0.01220703 C9.52469402 0.03899046 11.95738192 0.01243943 14.39453125 -0.01953125 C15.95053095 -0.016227 17.50652779 -0.00982045 19.0625 0 C19.78659058 -0.01012115 20.51068115 -0.02024231 21.25671387 -0.03067017 C24.95569439 0.05453596 26.7997653 0.48022676 29.72213745 2.80105591 C32.48229895 6.22330597 32.66291367 7.77603833 32.67822266 12.11914062 C32.70186386 14.04638977 32.70186386 14.04638977 32.72598267 16.01257324 C32.71703259 17.40682842 32.70677752 18.80107574 32.6953125 20.1953125 C32.69868331 21.6335084 32.70353814 23.07170151 32.70980835 24.5098877 C32.71716743 27.51940112 32.7065069 30.52817091 32.68310547 33.53759766 C32.65461634 37.3882084 32.67102577 41.23707673 32.70096779 45.0876236 C32.71906802 48.05606122 32.71327068 51.02408821 32.70032883 53.99253845 C32.69700225 55.41186227 32.70105564 56.83122381 32.71272659 58.25050354 C32.72547622 60.2366562 32.70258509 62.22294022 32.67822266 64.20898438 C32.67424469 65.33751831 32.67026672 66.46605225 32.66616821 67.62878418 C31.82704892 71.64026242 30.20205434 73.14593861 27.03125 75.6640625 C24.17023479 76.164174 21.9151015 76.36799794 19.0625 76.328125 C18.30457153 76.33290863 17.54664307 76.33769226 16.76574707 76.34262085 C15.16884273 76.34601196 13.57186822 76.3368645 11.97509766 76.31591797 C9.53780598 76.28913454 7.10511808 76.31568557 4.66796875 76.34765625 C3.11196905 76.344352 1.55597221 76.33794545 0 76.328125 C-0.72409058 76.33824615 -1.44818115 76.34836731 -2.19421387 76.35879517 C-5.89319439 76.27358904 -7.7372653 75.84789824 -10.65963745 73.52706909 C-13.41979895 70.10481903 -13.60041367 68.55208667 -13.61572266 64.20898438 C-13.63148346 62.92415161 -13.64724426 61.63931885 -13.66348267 60.31555176 C-13.65453259 58.92129658 -13.64427752 57.52704926 -13.6328125 56.1328125 C-13.63618331 54.6946166 -13.64103814 53.25642349 -13.64730835 51.8182373 C-13.65466743 48.80872388 -13.6440069 45.79995409 -13.62060547 42.79052734 C-13.59211634 38.9399166 -13.60852577 35.09104827 -13.63846779 31.2405014 C-13.65656802 28.27206378 -13.65077068 25.30403679 -13.63782883 22.33558655 C-13.63450225 20.91626273 -13.63855564 19.49690119 -13.65022659 18.07762146 C-13.66297622 16.0914688 -13.64008509 14.10518478 -13.61572266 12.11914062 C-13.61174469 10.99060669 -13.60776672 9.86207275 -13.60366821 8.69934082 C-12.05607532 1.30094672 -6.75188833 -0.09437619 0 0 Z " fill="#000000" transform="translate(42.96875,256.3359375)"/>
<path d="M0 0 C7.26 0 14.52 0 22 0 C22 64.35 22 128.7 22 195 C14.74 195 7.48 195 0 195 C-0.1546875 191.3803125 -0.1546875 191.3803125 -0.3125 187.6875 C-0.35802002 186.93170654 -0.40354004 186.17591309 -0.45043945 185.3972168 C-0.48828125 183.57421875 -0.48828125 183.57421875 0 180 C2.45703125 178.14453125 2.45703125 178.14453125 5 177 C6.38350672 174.23298656 6.15022108 171.9661003 6.17700195 168.86962891 C6.18983719 167.58134186 6.20267242 166.29305481 6.21589661 164.96572876 C6.22406331 163.55267724 6.23150717 162.13962138 6.23828125 160.7265625 C6.24235678 160.0162727 6.2464323 159.30598289 6.25063133 158.57416916 C6.27148969 154.81539958 6.28579293 151.0566665 6.29516602 147.29785156 C6.3062361 143.41489085 6.34064266 139.53250233 6.38033772 135.64974403 C6.40647618 132.66430594 6.41485528 129.67900483 6.41844749 126.69346237 C6.42331993 125.26211045 6.43495278 123.83076492 6.45348549 122.39952469 C6.47781534 120.39621004 6.47449819 118.39261742 6.4699707 116.38916016 C6.47877007 114.67945541 6.47877007 114.67945541 6.48774719 112.93521118 C5.89311954 109.35680466 4.80161416 108.22347869 2 106 C1.34 105.67 0.68 105.34 0 105 C-0.13501894 102.56065775 -0.23403897 100.12875896 -0.3125 97.6875 C-0.35439453 96.99720703 -0.39628906 96.30691406 -0.43945312 95.59570312 C-0.48828125 93.57421875 -0.48828125 93.57421875 0 90 C2.45703125 88.14453125 2.45703125 88.14453125 5 87 C6.38350672 84.23298656 6.15022108 81.9661003 6.17700195 78.86962891 C6.18983719 77.58134186 6.20267242 76.29305481 6.21589661 74.96572876 C6.22406331 73.55267724 6.23150717 72.13962138 6.23828125 70.7265625 C6.24235678 70.0162727 6.2464323 69.30598289 6.25063133 68.57416916 C6.27148969 64.81539958 6.28579293 61.0566665 6.29516602 57.29785156 C6.3062361 53.41489085 6.34064266 49.53250233 6.38033772 45.64974403 C6.40647618 42.66430594 6.41485528 39.67900483 6.41844749 36.69346237 C6.42331993 35.26211045 6.43495278 33.83076492 6.45348549 32.39952469 C6.47781534 30.39621004 6.47449819 28.39261742 6.4699707 26.38916016 C6.47583694 25.24935699 6.48170319 24.10955383 6.48774719 22.93521118 C5.89311954 19.35680466 4.80161416 18.22347869 2 16 C1.34 15.67 0.68 15.34 0 15 C0 10.05 0 5.1 0 0 Z " fill="#FB6255" transform="translate(475,242)"/>
<path d="M0 0 C7.26 0 14.52 0 22 0 C22 64.35 22 128.7 22 195 C14.74 195 7.48 195 0 195 C-0.1546875 191.3803125 -0.1546875 191.3803125 -0.3125 187.6875 C-0.35802002 186.93170654 -0.40354004 186.17591309 -0.45043945 185.3972168 C-0.48828125 183.57421875 -0.48828125 183.57421875 0 180 C2.45703125 178.14453125 2.45703125 178.14453125 5 177 C6.38350672 174.23298656 6.15022108 171.9661003 6.17700195 168.86962891 C6.18983719 167.58134186 6.20267242 166.29305481 6.21589661 164.96572876 C6.22406331 163.55267724 6.23150717 162.13962138 6.23828125 160.7265625 C6.24235678 160.0162727 6.2464323 159.30598289 6.25063133 158.57416916 C6.27148969 154.81539958 6.28579293 151.0566665 6.29516602 147.29785156 C6.3062361 143.41489085 6.34064266 139.53250233 6.38033772 135.64974403 C6.40647618 132.66430594 6.41485528 129.67900483 6.41844749 126.69346237 C6.42331993 125.26211045 6.43495278 123.83076492 6.45348549 122.39952469 C6.47781534 120.39621004 6.47449819 118.39261742 6.4699707 116.38916016 C6.47877007 114.67945541 6.47877007 114.67945541 6.48774719 112.93521118 C5.89311954 109.35680466 4.80161416 108.22347869 2 106 C1.34 105.67 0.68 105.34 0 105 C-0.13501894 102.56065775 -0.23403897 100.12875896 -0.3125 97.6875 C-0.35439453 96.99720703 -0.39628906 96.30691406 -0.43945312 95.59570312 C-0.48828125 93.57421875 -0.48828125 93.57421875 0 90 C2.45703125 88.14453125 2.45703125 88.14453125 5 87 C6.38350672 84.23298656 6.15022108 81.9661003 6.17700195 78.86962891 C6.18983719 77.58134186 6.20267242 76.29305481 6.21589661 74.96572876 C6.22406331 73.55267724 6.23150717 72.13962138 6.23828125 70.7265625 C6.24235678 70.0162727 6.2464323 69.30598289 6.25063133 68.57416916 C6.27148969 64.81539958 6.28579293 61.0566665 6.29516602 57.29785156 C6.3062361 53.41489085 6.34064266 49.53250233 6.38033772 45.64974403 C6.40647618 42.66430594 6.41485528 39.67900483 6.41844749 36.69346237 C6.42331993 35.26211045 6.43495278 33.83076492 6.45348549 32.39952469 C6.47781534 30.39621004 6.47449819 28.39261742 6.4699707 26.38916016 C6.47583694 25.24935699 6.48170319 24.10955383 6.48774719 22.93521118 C5.89311954 19.35680466 4.80161416 18.22347869 2 16 C1.34 15.67 0.68 15.34 0 15 C0 10.05 0 5.1 0 0 Z " fill="#FE825C" transform="translate(128,242)"/>
<path d="M0 0 C7.26 0 14.52 0 22 0 C22 44.55 22 89.1 22 135 C14.74 135 7.48 135 0 135 C0 90.45 0 45.9 0 0 Z " fill="#86E0FF" transform="translate(295,302)"/>
<path d="M0 0 C0.33 0 0.66 0 1 0 C1.33 48.84 1.66 97.68 2 148 C5.278784 149.092928 7.76284411 149.15783872 11.21557617 149.20532227 C12.4966777 149.22526749 13.77777924 149.24521271 15.09770203 149.26576233 C16.49612304 149.2827454 17.89454531 149.29962425 19.29296875 149.31640625 C20.7235829 149.33698166 22.15419105 149.35797829 23.58479309 149.37937927 C27.34780006 149.43453933 31.11086135 149.48397529 34.8739624 149.53222656 C38.71485216 149.58248593 42.55566316 149.63814883 46.39648438 149.69335938 C53.93092472 149.80086675 61.46543116 149.90182869 69 150 C69 154.95 69 159.9 69 165 C28.74 165 -11.52 165 -53 165 C-53 160.05 -53 155.1 -53 150 C-50.66421875 149.93941406 -48.3284375 149.87882813 -45.921875 149.81640625 C-43.65475399 149.75456297 -41.38768027 149.69119764 -39.12060547 149.62768555 C-37.54740626 149.58442662 -35.97416283 149.54274526 -34.40087891 149.50268555 C-32.13690885 149.44476338 -29.87315949 149.38113286 -27.609375 149.31640625 C-26.55759064 149.29133751 -26.55759064 149.29133751 -25.48455811 149.26576233 C-22.19766179 149.16648978 -19.14857995 148.99187328 -16 148 C-15.67 145.69 -15.34 143.38 -15 141 C-14.67 141.66 -14.34 142.32 -14 143 C-9.38 143 -4.76 143 0 143 C0 95.81 0 48.62 0 0 Z " fill="#C8C6C6" transform="translate(248,302)"/>
<path d="M0 0 C40.26 0 80.52 0 122 0 C122 4.95 122 9.9 122 15 C81.74 15 41.48 15 0 15 C0 10.05 0 5.1 0 0 Z " fill="#B7B3B2" transform="translate(195,482)"/>
<path d="M0 0 C5.82884915 2.45484224 9.37185542 6.63494371 11.78125 12.41796875 C12.49716461 17.97976674 12.34907271 23.37239938 12.15625 28.98046875 C11.970625 36.62203125 11.970625 36.62203125 11.78125 44.41796875 C-0.75875 44.41796875 -13.29875 44.41796875 -26.21875 44.41796875 C-26.321875 39.46796875 -26.425 34.51796875 -26.53125 29.41796875 C-26.57677002 27.87238281 -26.62229004 26.32679688 -26.66918945 24.734375 C-26.74512857 17.2012143 -26.64011761 11.19083162 -21.21875 5.41796875 C-14.83137199 -0.50204014 -8.52166594 -2.23543702 0 0 Z " fill="#FDFDFD" transform="translate(221.21875,182.58203125)"/>
<path d="M0 0 C4.02262358 3.80876258 6.84321789 7.72143341 7.22705078 13.29980469 C7.21657715 14.57758789 7.20610352 15.85537109 7.1953125 17.171875 C7.19031738 18.4206543 7.18532227 19.66943359 7.18017578 20.95605469 C7.16196777 22.53805664 7.14375977 24.12005859 7.125 25.75 C7.08375 30.7825 7.0425 35.815 7 41 C-5.54 41 -18.08 41 -31 41 C-31.103125 35.885 -31.20625 30.77 -31.3125 25.5 C-31.35802002 23.90220703 -31.40354004 22.30441406 -31.45043945 20.65820312 C-31.57423312 7.97534185 -31.57423312 7.97534185 -27.38183594 2.40795898 C-19.54105035 -5.58105346 -9.05385993 -6.3202534 0 0 Z " fill="#FDFDFD" transform="translate(310,186)"/>
<path d="M0 0 C7.59 0 15.18 0 23 0 C23 14.85 23 29.7 23 45 C15.41 45 7.82 45 0 45 C0 30.15 0 15.3 0 0 Z " fill="#D0CDCD" transform="translate(127,452)"/>
<path d="M0 0 C7.26 0 14.52 0 22 0 C22 14.85 22 29.7 22 45 C14.74 45 7.48 45 0 45 C0 30.15 0 15.3 0 0 Z " fill="#B8B4B3" transform="translate(475,452)"/>
<path d="M0 0 C7.26 0 14.52 0 22 0 C22 14.85 22 29.7 22 45 C14.74 45 7.48 45 0 45 C0 30.15 0 15.3 0 0 Z " fill="#464342" transform="translate(475,182)"/>
<path d="M0 0 C7.26 0 14.52 0 22 0 C22 14.85 22 29.7 22 45 C14.74 45 7.48 45 0 45 C0 30.15 0 15.3 0 0 Z " fill="#464342" transform="translate(128,182)"/>
<path d="M0 0 C4.95 0 9.9 0 15 0 C15 14.85 15 29.7 15 45 C10.05 45 5.1 45 0 45 C0 30.15 0 15.3 0 0 Z " fill="#FFFFFF" transform="translate(452,362)"/>
<path d="M0 0 C4.95 0 9.9 0 15 0 C15 14.85 15 29.7 15 45 C10.05 45 5.1 45 0 45 C0 30.15 0 15.3 0 0 Z " fill="#FFFFFF" transform="translate(392,362)"/>
<path d="M0 0 C4.95 0 9.9 0 15 0 C15 14.85 15 29.7 15 45 C10.05 45 5.1 45 0 45 C0 30.15 0 15.3 0 0 Z " fill="#FFFFFF" transform="translate(105,362)"/>
<path d="M0 0 C4.95 0 9.9 0 15 0 C15 14.85 15 29.7 15 45 C10.05 45 5.1 45 0 45 C0 30.15 0 15.3 0 0 Z " fill="#FFFFFF" transform="translate(45,362)"/>
<path d="M0 0 C4.95 0 9.9 0 15 0 C15 14.85 15 29.7 15 45 C10.05 45 5.1 45 0 45 C0 30.15 0 15.3 0 0 Z " fill="#FFFFFF" transform="translate(452,272)"/>
<path d="M0 0 C4.95 0 9.9 0 15 0 C15 14.85 15 29.7 15 45 C10.05 45 5.1 45 0 45 C0 30.15 0 15.3 0 0 Z " fill="#FFFFFF" transform="translate(392,272)"/>
<path d="M0 0 C4.95 0 9.9 0 15 0 C15 14.85 15 29.7 15 45 C10.05 45 5.1 45 0 45 C0 30.15 0 15.3 0 0 Z " fill="#FFFFFF" transform="translate(105,272)"/>
<path d="M0 0 C4.95 0 9.9 0 15 0 C15 14.85 15 29.7 15 45 C10.05 45 5.1 45 0 45 C0 30.15 0 15.3 0 0 Z " fill="#FFFFFF" transform="translate(45,272)"/>
<path d="M0 0 C12.54 0 25.08 0 38 0 C38 4.95 38 9.9 38 15 C25.46 15 12.92 15 0 15 C0 10.05 0 5.1 0 0 Z " fill="#FC9F63" transform="translate(279,242)"/>
<path d="M0 0 C12.54 0 25.08 0 38 0 C38 4.95 38 9.9 38 15 C25.46 15 12.92 15 0 15 C0 10.05 0 5.1 0 0 Z " fill="#FC9F63" transform="translate(195,242)"/>
<path d="M0 0 C7.26 0 14.52 0 22 0 C22 4.95 22 9.9 22 15 C14.74 15 7.48 15 0 15 C0 10.05 0 5.1 0 0 Z " fill="#9C9897" transform="translate(295,482)"/>
<path d="M0 0 C7.26 0 14.52 0 22 0 C22 4.95 22 9.9 22 15 C14.74 15 7.48 15 0 15 C0 10.05 0 5.1 0 0 Z " fill="#B8B4B3" transform="translate(295,452)"/>
<path d="M0 0 C4.95 0 9.9 0 15 0 C15 6.6 15 13.2 15 20 C4.76177285 20.48753463 4.76177285 20.48753463 1.65625 18.5 C-0.6665514 14.99388469 -0.43597194 11.79846612 -0.25 7.75 C-0.23195313 7.00492188 -0.21390625 6.25984375 -0.1953125 5.4921875 C-0.14835649 3.66090299 -0.07661652 1.83028351 0 0 Z " fill="#ED2146" transform="translate(294,30)"/>
<path d="M0 0 C10 0 10 0 14 2 C15.59412284 5.18824568 15.10174735 8.62896662 15.0625 12.125 C15.05798828 12.87910156 15.05347656 13.63320313 15.04882812 14.41015625 C15.03703499 16.27347127 15.01909942 18.13674555 15 20 C10.05 20 5.1 20 0 20 C0 13.4 0 6.8 0 0 Z " fill="#F0404D" transform="translate(263,15)"/>
<path d="M0 0 C4.95 0 9.9 0 15 0 C15 4.95 15 9.9 15 15 C10.05 15 5.1 15 0 15 C0 10.05 0 5.1 0 0 Z " fill="#B8B4B3" transform="translate(482,152)"/>
<path d="M0 0 C4.95 0 9.9 0 15 0 C15 4.95 15 9.9 15 15 C10.05 15 5.1 15 0 15 C0 10.05 0 5.1 0 0 Z " fill="#D0CDCD" transform="translate(15,152)"/>
</svg>
